<svg xmlns="http://www.w3.org/2000/svg" width="30" height="30" viewBox="0 0 30 30">
    <path fill="#F38598" fill-rule="evenodd" d="M19.167 23.75a1.041 1.041 0 1 1 0 2.083H3.542a1.041 1.041 0 1 1 0-2.083zm0-13.542a5.214 5.214 0 0 1 5.208 5.209c0 .963-.266 1.864-.724 2.639l-.144.228 3.688 3.688a1.04 1.04 0 0 1-1.367 1.566l-.106-.093-3.688-3.688a5.176 5.176 0 0 1-2.867.868 5.214 5.214 0 0 1-5.209-5.208 5.214 5.214 0 0 1 5.209-5.209zM10.833 17.5c.575 0 1.042.467 1.042 1.042l-.006.113a1.042 1.042 0 0 1-1.036.928H3.542a1.041 1.041 0 1 1 0-2.083zm0-6.25c.575 0 1.042.467 1.042 1.042l-.006.113a1.042 1.042 0 0 1-1.036.928H3.542a1.041 1.041 0 1 1 0-2.083zM19.167 5a1.041 1.041 0 1 1 0 2.083H3.542a1.041 1.041 0 1 1 0-2.083z"/>
</svg>
