<svg xmlns="http://www.w3.org/2000/svg" width="24" height="24" fill="none" viewBox="0 0 24 24">
    <path fill="#42236A" fill-rule="evenodd" d="M19.65 2H4.35c-.47 0-.85.373-.85.833V22l3.4-2.5L9.45 22 12 19.5l2.55 2.5 2.55-2.5 3.4 2.5V2.833c0-.46-.38-.833-.85-.833zm-6.8 13.333H6.9v-1.666h5.95v1.666zM6.9 12h5.95v-1.667H6.9V12zm5.95-3.333H6.9V7h5.95v1.667zm1.7 6.666h2.55v-1.666h-2.55v1.666zM17.1 12h-2.55v-1.667h2.55V12zm-2.55-3.333h2.55V7h-2.55v1.667z" clip-rule="evenodd"/>
    <mask id="a" width="18" height="20" x="3" y="2" maskUnits="userSpaceOnUse">
        <path fill="#fff" fill-rule="evenodd" d="M19.65 2H4.35c-.47 0-.85.373-.85.833V22l3.4-2.5L9.45 22 12 19.5l2.55 2.5 2.55-2.5 3.4 2.5V2.833c0-.46-.38-.833-.85-.833zm-6.8 13.333H6.9v-1.666h5.95v1.666zM6.9 12h5.95v-1.667H6.9V12zm5.95-3.333H6.9V7h5.95v1.667zm1.7 6.666h2.55v-1.666h-2.55v1.666zM17.1 12h-2.55v-1.667h2.55V12zm-2.55-3.333h2.55V7h-2.55v1.667z" clip-rule="evenodd"/>
    </mask>
</svg>
