<svg width="28" height="28" viewBox="0 0 28 28" fill="none" xmlns="http://www.w3.org/2000/svg">
<path fill-rule="evenodd" clip-rule="evenodd" d="M8.9222 14.6136C6.47011 14.6136 4.47526 12.6187 4.47526 10.1667C4.47526 7.71462 6.47011 5.71973 8.92215 5.71973C10.6968 5.71973 12.2969 6.77965 12.9991 8.38789H14.3411L15.5449 7.18406C15.7187 7.01045 16.0002 7.01045 16.1739 7.18406L17.1935 8.2037L18.2131 7.18406C18.3868 7.01045 18.6683 7.01045 18.842 7.18406L19.8617 8.2037L20.8813 7.18401C21.055 7.01041 21.3365 7.01041 21.5102 7.18401L24.1783 9.85218C24.2794 9.9533 24.3257 10.0968 24.3029 10.2379C24.28 10.379 24.1907 10.5005 24.0628 10.5644L21.3946 11.8985C21.3329 11.9294 21.2648 11.9454 21.1957 11.9454H12.9991C12.2969 13.5537 10.6968 14.6136 8.9222 14.6136ZM18.7853 18.9748H18.7858L21.9016 17.049C23.1421 16.2884 24.8063 16.5787 25.6667 17.7062L15.7498 24.4999L7.78173 23.0034H5.83333V24.4999H3.5V18.6666H5.83333V19.16L7.78173 17.8772L8.49516 17.2928C10.0561 16.0135 12.3938 16.0135 13.9543 17.2928C13.9977 17.3208 14.0465 17.3635 14.1033 17.4133C14.3114 17.5955 14.6279 17.8725 15.1878 17.8725H17.4227C18.1159 17.8725 18.6894 18.3536 18.7853 18.9748ZM9.81172 10.1665C9.81172 10.657 9.41274 11.0559 8.92233 11.0559C8.43192 11.0559 8.03294 10.657 8.03294 10.1665C8.03294 9.67614 8.43192 9.27716 8.92233 9.27716C9.41274 9.27716 9.81172 9.67614 9.81172 10.1665Z" fill="#E0BBE4"/>
</svg>
