<svg xmlns="http://www.w3.org/2000/svg" width="24" height="24" fill="none" viewBox="0 0 24 24">
    <path fill="#88e4d2" fill-rule="evenodd" d="M18.3 8.333h-.9V6.51C17.43 3.5 15.058 1.032 12.102 1h-.148C9.02 1.004 6.632 3.411 6.6 6.401v1.932h-.9c-1.491 0-2.7 1.232-2.7 2.75v9.167C3 21.769 4.209 23 5.7 23h12.6c1.491 0 2.7-1.231 2.7-2.75v-9.167c0-1.518-1.209-2.75-2.7-2.75zM13 17.82V20h-2v-2.18A2.995 2.995 0 0 1 12 12a2.995 2.995 0 1 1 1 5.82zM8 9h8V7a3.95 3.95 0 0 0-3.911-4h-.14A3.955 3.955 0 0 0 8 6.911V9z" clip-rule="evenodd"/>
    <mask id="a" width="18" height="22" x="3" y="1" maskUnits="userSpaceOnUse">
        <path fill="#fff" fill-rule="evenodd" d="M18.3 8.333h-.9V6.51C17.43 3.5 15.058 1.032 12.102 1h-.148C9.02 1.004 6.632 3.411 6.6 6.401v1.932h-.9c-1.491 0-2.7 1.232-2.7 2.75v9.167C3 21.769 4.209 23 5.7 23h12.6c1.491 0 2.7-1.231 2.7-2.75v-9.167c0-1.518-1.209-2.75-2.7-2.75zM13 17.82V20h-2v-2.18A2.995 2.995 0 0 1 12 12a2.995 2.995 0 1 1 1 5.82zM8 9h8V7a3.95 3.95 0 0 0-3.911-4h-.14A3.955 3.955 0 0 0 8 6.911V9z" clip-rule="evenodd"/>
    </mask>
</svg>
