<svg xmlns="http://www.w3.org/2000/svg" width="24" height="24" fill="none" viewBox="0 0 24 24">
    <path fill="#feb2a8" fill-rule="evenodd" d="M16.168 6.563v-1.73A.833.833 0 0 0 15.335 4h-12.5a.833.833 0 0 0-.833.833v3.334h6.75c.127.619.402 1.18.77 1.666h-7.52v5.834c0 .46.372.833.833.833h1.9l.148.448A3.344 3.344 0 0 0 7.624 19.2c1.884.237 5.391.633 7.711.633 1.8 0 3.473-.689 4.71-1.939 1.278-1.29 1.972-3.036 1.955-4.917-.032-3.28-2.577-5.992-5.832-6.414zM4.5 14v-1.667h4.167V14H4.5zm10.835 4.167c1.35 0 2.604-.514 3.527-1.445.963-.972 1.486-2.297 1.471-3.73-.026-2.66-2.289-4.825-5.045-4.825h-4.81a2.505 2.505 0 0 0 2.357 1.666h.833c.461 0 .834.374.834.834 0 1.084.698 2 1.665 2.345v2.655h.001c0 .46-.372.833-.833.833h-8.83c.222.568.718.97 1.328 1.047 1.845.231 5.273.62 7.502.62z" clip-rule="evenodd"/>
    <mask id="a" width="21" height="16" x="2" y="4" maskUnits="userSpaceOnUse">
        <path fill="#fff" fill-rule="evenodd" d="M16.168 6.563v-1.73A.833.833 0 0 0 15.335 4h-12.5a.833.833 0 0 0-.833.833v3.334h6.75c.127.619.402 1.18.77 1.666h-7.52v5.834c0 .46.372.833.833.833h1.9l.148.448A3.344 3.344 0 0 0 7.624 19.2c1.884.237 5.391.633 7.711.633 1.8 0 3.473-.689 4.71-1.939 1.278-1.29 1.972-3.036 1.955-4.917-.032-3.28-2.577-5.992-5.832-6.414zM4.5 14v-1.667h4.167V14H4.5zm10.835 4.167c1.35 0 2.604-.514 3.527-1.445.963-.972 1.486-2.297 1.471-3.73-.026-2.66-2.289-4.825-5.045-4.825h-4.81a2.505 2.505 0 0 0 2.357 1.666h.833c.461 0 .834.374.834.834 0 1.084.698 2 1.665 2.345v2.655h.001c0 .46-.372.833-.833.833h-8.83c.222.568.718.97 1.328 1.047 1.845.231 5.273.62 7.502.62z" clip-rule="evenodd"/>
    </mask>
</svg>
