<svg width="28" height="28" viewBox="0 0 28 28" fill="none" xmlns="http://www.w3.org/2000/svg">
<path fill-rule="evenodd" clip-rule="evenodd" d="M14.6369 23.9541C9.7914 23.9541 5.75351 19.9162 5.75351 15.0707C5.75351 10.2252 9.7914 6.18735 14.6369 6.18735C16.5751 6.18735 18.1902 6.83341 19.8054 7.8025L17.9345 7.81269V11.043L25.7616 10.9432L25.1354 3.07781L21.9051 3.07781L21.9051 5.37977C19.8054 3.76461 17.3826 2.95703 14.6369 2.95703C8.01473 2.95703 2.52319 8.44857 2.52319 15.0707C2.52319 21.6929 8.01473 27.1844 14.6369 27.1844C21.259 27.1844 26.7505 21.6929 26.7505 15.0707L23.5202 15.0707C23.5202 19.9162 19.4823 23.9541 14.6369 23.9541Z" fill="#C9C9FF" stroke="white"/>
<circle cx="14.041" cy="11.7988" r="2" transform="rotate(-90 14.041 11.7988)" fill="#C9C9FF"/>
<path d="M13.3803 15.1687C12.0742 14.7304 11.041 13.468 11.041 12.0759C11.041 10.3104 12.5616 8.9585 14.42 8.9585C16.2784 8.9585 17.799 10.3721 17.799 12.1377C17.799 13.5297 16.7658 14.7335 15.4597 15.1687L15.4597 17.3416L16.539 18.3416L15.539 20.4745L15.4597 21.7986L13.3803 21.7986L13.3803 15.1687ZM15.5409 12.1562C15.5409 11.5697 15.0373 11.0913 14.42 11.0913C13.8027 11.0913 13.2991 11.5697 13.2991 12.1562C13.2991 12.7426 13.8027 13.221 14.42 13.221C15.0373 13.221 15.5409 12.7426 15.5409 12.1562Z" fill="#C9C9FF"/>
</svg>
