<svg xmlns="http://www.w3.org/2000/svg" width="24" height="24" fill="none" viewBox="0 0 24 24">
    <path fill="#ff9800" fill-rule="evenodd" d="M12 2C6.5 2 2 6.5 2 12s4.5 10 10 10 10-4.5 10-10S17.5 2 12 2zm-1.25 15v-6.25h2.5V17h-2.5zm0-8.75c0 .75.5 1.25 1.25 1.25s1.25-.5 1.25-1.25S12.75 7 12 7s-1.25.5-1.25 1.25z" clip-rule="evenodd"/>
    <mask id="a" width="20" height="20" x="2" y="2" maskUnits="userSpaceOnUse">
        <path fill="#fff" fill-rule="evenodd" d="M12 2C6.5 2 2 6.5 2 12s4.5 10 10 10 10-4.5 10-10S17.5 2 12 2zm-1.25 15v-6.25h2.5V17h-2.5zm0-8.75c0 .75.5 1.25 1.25 1.25s1.25-.5 1.25-1.25S12.75 7 12 7s-1.25.5-1.25 1.25z" clip-rule="evenodd"/>
    </mask>
</svg>
