<svg xmlns="http://www.w3.org/2000/svg" width="24" height="24" fill="none" viewBox="0 0 24 24">
    <path fill="#F9E789" fill-rule="evenodd" d="M16.489 1.38a.95.95 0 0 1 1.33-.19A10.363 10.363 0 0 1 22 9.544c0 5.444-4.184 9.924-9.505 10.406v1.95h3.802a.95.95 0 0 1 0 1.9H6.792a.95.95 0 0 1 0-1.9h3.803v-1.957a10.348 10.348 0 0 1-7.404-4.125.95.95 0 0 1 1.52-1.142 8.476 8.476 0 0 0 6.833 3.422c4.717 0 8.555-3.838 8.555-8.554a8.48 8.48 0 0 0-3.42-6.834.95.95 0 0 1-.19-1.33zm1.709 8.164a6.653 6.653 0 0 1-6.654 6.653 6.653 6.653 0 1 1 6.654-6.653z" clip-rule="evenodd"/>
</svg>
