<!--<svg xmlns="http://www.w3.org/2000/svg" xmlns:xlink="http://www.w3.org/1999/xlink" width="30" height="30" viewBox="0 0 30 30">-->
<!--    <defs>-->
<!--        <path id="a" d="M24.563 2.5H5.438c-.587 0-1.063.466-1.063 1.042V27.5l4.25-3.125 3.188 3.125L15 24.375l3.188 3.125 3.187-3.125 4.25 3.125V3.542c0-.576-.476-1.042-1.063-1.042zm-8.5 16.667H8.625v-2.084h7.438v2.084zm0-4.167H8.625v-2.083h7.438V15zm0-4.167H8.625V8.75h7.438v2.083zm5.312 8.334h-3.188v-2.084h3.188v2.084zm0-4.167h-3.188v-2.083h3.188V15zm0-4.167h-3.188V8.75h3.188v2.083z"/>-->
<!--    </defs>-->
<!--    <g fill="none" fill-rule="evenodd">-->
<!--        <mask id="b" fill="#fff">-->
<!--            <use xlink:href="#a"/>-->
<!--        </mask>-->
<!--&lt;!&ndash;        <use fill="#1B2031" fill-rule="nonzero" xlink:href="#a"/>&ndash;&gt;-->
<!--        <g fill="#88E4D2" mask="url(#b)">-->
<!--            <path d="M0 0h30v30H0z"/>-->
<!--        </g>-->
<!--    </g>-->
<!--</svg>-->
<svg xmlns="http://www.w3.org/2000/svg" xmlns:xlink="http://www.w3.org/1999/xlink" width="30" height="30" viewBox="0 0 30 30" fill="none">
  <path fill="#88E4D2" fill-rule="evenodd"  clip-rule="evenodd" id="a" d="M24.563 2.5H5.438c-.587 0-1.063.466-1.063 1.042V27.5l4.25-3.125 3.188 3.125L15 24.375l3.188 3.125 3.187-3.125 4.25 3.125V3.542c0-.576-.476-1.042-1.063-1.042zm-8.5 16.667H8.625v-2.084h7.438v2.084zm0-4.167H8.625v-2.083h7.438V15zm0-4.167H8.625V8.75h7.438v2.083zm5.312 8.334h-3.188v-2.084h3.188v2.084zm0-4.167h-3.188v-2.083h3.188V15zm0-4.167h-3.188V8.75h3.188v2.083z"/>
  <mask id="b" maskUnits="userSpaceOnUse" fill-rule="evenodd">
    <path fill="#fff" fill-rule="evenodd"  clip-rule="evenodd" id="a" d="M24.563 2.5H5.438c-.587 0-1.063.466-1.063 1.042V27.5l4.25-3.125 3.188 3.125L15 24.375l3.188 3.125 3.187-3.125 4.25 3.125V3.542c0-.576-.476-1.042-1.063-1.042zm-8.5 16.667H8.625v-2.084h7.438v2.084zm0-4.167H8.625v-2.083h7.438V15zm0-4.167H8.625V8.75h7.438v2.083zm5.312 8.334h-3.188v-2.084h3.188v2.084zm0-4.167h-3.188v-2.083h3.188V15zm0-4.167h-3.188V8.75h3.188v2.083z"/>
  </mask>
</svg>
