<svg xmlns="http://www.w3.org/2000/svg" width="30" height="30" viewBox="0 0 30 30">
    <path fill="#D574F8" fill-rule="evenodd" d="M24.041 15.737v7.579c0 .93-.803 1.684-1.795 1.684H4.296c-.993 0-1.796-.754-1.796-1.684v-7.579h21.541zM25.031 5c1.307 0 2.376.952 2.463 2.157l.006.159v11.789c0 1.226-1.015 2.229-2.3 2.31l-.168.005h-.233v-1.263h.233c.578 0 1.054-.41 1.115-.938l.007-.114V7.315c0-.542-.438-.989-1-1.046l-.122-.006H8.876c-.579 0-1.055.41-1.116.938l-.006.115-.001.13H6.407v-.13c0-1.226 1.015-2.23 2.3-2.31L8.876 5h16.156zM12.374 19.106H6.09v1.684h6.283v-1.684zm8.078 0h-3.59v1.684h3.59v-1.684zm1.795-10.947c.992 0 1.795.753 1.795 1.684v3.367H2.5V9.843c0-.93.803-1.684 1.795-1.684z"/>
</svg>
