<!--<svg xmlns="http://www.w3.org/2000/svg" xmlns:xlink="http://www.w3.org/1999/xlink" width="24" height="24" viewBox="0 0 24 24">-->
<!--    <defs>-->
<!--        <path id="a" d="M21.982 5.25L12.97 19.758a3.173 3.173 0 0 1-.045.077l-.013.02a1.341 1.341 0 0 1-2.256-.017l-.005-.006a.65.65 0 0 1-.045-.078l-.002-.005a1.272 1.272 0 0 1-.102-.251l-.03-.136-.02-.146-.652-5.26L21.982 5.25zM10.335 19.682l.002.004-.002-.004zM2.96 3h.024c.144.007.28.032.414.081l.137.056 4.919 2.07 1.074 8.676.5 4.038.151 1.22.01.074v.002l.01.073c.024.137.07.267.135.39l-.01-.017-.101-.173-.044-.074L1.804 5.03a1.669 1.669 0 0 1-.046-.077l-.07-.154a1.314 1.314 0 0 1 .091-1.135A1.343 1.343 0 0 1 2.894 3h.066zm.277-.312l17.242.212h.09l.025.001c.437.023.855.257 1.09.662a1.316 1.316 0 0 1-.026 1.37c-.083.11-.156.196-.217.257l-.058.054-.117.09-4.474 3.11L3.237 2.688z"/>-->
<!--    </defs>-->
<!--    <g fill="none" fill-rule="evenodd">-->
<!--        <mask id="b" fill="#fff">-->
<!--            <use xlink:href="#a"/>-->
<!--        </mask>-->
<!--        <use fill="#1B2031" xlink:href="#a"/>-->
<!--        <g fill="#FF9800" mask="url(#b)">-->
<!--            <path d="M0 0h24v24H0z"/>-->
<!--        </g>-->
<!--    </g>-->
<!--</svg>-->
<svg xmlns="http://www.w3.org/2000/svg" xmlns:xlink="http://www.w3.org/1999/xlink" width="24" height="24" viewBox="0 0 24 24">
<path fill="#FF9800" fill-rule="evenodd"  clip-rule="evenodd" id="a" d="M21.982 5.25L12.97 19.758a3.173 3.173 0 0 1-.045.077l-.013.02a1.341 1.341 0 0 1-2.256-.017l-.005-.006a.65.65 0 0 1-.045-.078l-.002-.005a1.272 1.272 0 0 1-.102-.251l-.03-.136-.02-.146-.652-5.26L21.982 5.25zM10.335 19.682l.002.004-.002-.004zM2.96 3h.024c.144.007.28.032.414.081l.137.056 4.919 2.07 1.074 8.676.5 4.038.151 1.22.01.074v.002l.01.073c.024.137.07.267.135.39l-.01-.017-.101-.173-.044-.074L1.804 5.03a1.669 1.669 0 0 1-.046-.077l-.07-.154a1.314 1.314 0 0 1 .091-1.135A1.343 1.343 0 0 1 2.894 3h.066zm.277-.312l17.242.212h.09l.025.001c.437.023.855.257 1.09.662a1.316 1.316 0 0 1-.026 1.37c-.083.11-.156.196-.217.257l-.058.054-.117.09-4.474 3.11L3.237 2.688z"/>
<mask id="b" maskUnits="userSpaceOnUse" fill-rule="evenodd">
  <path fill="#fff" fill-rule="evenodd"  clip-rule="evenodd" id="a" d="M21.982 5.25L12.97 19.758a3.173 3.173 0 0 1-.045.077l-.013.02a1.341 1.341 0 0 1-2.256-.017l-.005-.006a.65.65 0 0 1-.045-.078l-.002-.005a1.272 1.272 0 0 1-.102-.251l-.03-.136-.02-.146-.652-5.26L21.982 5.25zM10.335 19.682l.002.004-.002-.004zM2.96 3h.024c.144.007.28.032.414.081l.137.056 4.919 2.07 1.074 8.676.5 4.038.151 1.22.01.074v.002l.01.073c.024.137.07.267.135.39l-.01-.017-.101-.173-.044-.074L1.804 5.03a1.669 1.669 0 0 1-.046-.077l-.07-.154a1.314 1.314 0 0 1 .091-1.135A1.343 1.343 0 0 1 2.894 3h.066zm.277-.312l17.242.212h.09l.025.001c.437.023.855.257 1.09.662a1.316 1.316 0 0 1-.026 1.37c-.083.11-.156.196-.217.257l-.058.054-.117.09-4.474 3.11L3.237 2.688z"/>
</mask>
</svg>
