<svg xmlns="http://www.w3.org/2000/svg" width="24" height="24" fill="none" viewBox="0 0 24 24">
    <path fill="#FF9800" fill-rule="evenodd" d="M21.53 13.875C20.025 16.125 16.514 20 12 20c-4.514 0-8.025-3.875-9.53-6.125-.627-.75-.627-1.875 0-2.75C3.975 8.875 7.486 5 12 5c4.514 0 8.025 3.875 9.53 6 .627.875.627 2 0 2.875zM15.762 12.5c0-2.125-1.63-3.75-3.762-3.75s-3.762 1.625-3.762 3.75 1.63 3.75 3.762 3.75 3.762-1.625 3.762-3.75z" clip-rule="evenodd"/>
    <mask id="a" width="20" height="15" x="2" y="5" maskUnits="userSpaceOnUse">
        <path fill="#fff" fill-rule="evenodd" d="M21.53 13.875C20.025 16.125 16.514 20 12 20c-4.514 0-8.025-3.875-9.53-6.125-.627-.75-.627-1.875 0-2.75C3.975 8.875 7.486 5 12 5c4.514 0 8.025 3.875 9.53 6 .627.875.627 2 0 2.875zM15.762 12.5c0-2.125-1.63-3.75-3.762-3.75s-3.762 1.625-3.762 3.75 1.63 3.75 3.762 3.75 3.762-1.625 3.762-3.75z" clip-rule="evenodd"/>
    </mask>
</svg>
