<svg xmlns="http://www.w3.org/2000/svg" width="255" height="335" viewBox="0 0 255 335">
    <defs>
        <filter id="a" width="142.1%" height="147.2%" x="-21%" y="-23.6%" filterUnits="objectBoundingBox">
            <feOffset dy="5" in="SourceAlpha" result="shadowOffsetOuter1"/>
            <feGaussianBlur in="shadowOffsetOuter1" result="shadowBlurOuter1" stdDeviation="15"/>
            <feColorMatrix in="shadowBlurOuter1" result="shadowMatrixOuter1" values="0 0 0 0 0 0 0 0 0 0 0 0 0 0 0 0 0 0 0.01 0"/>
            <feMerge>
                <feMergeNode in="shadowMatrixOuter1"/>
                <feMergeNode in="SourceGraphic"/>
            </feMerge>
        </filter>
    </defs>
    <g fill="#FFF" fill-rule="evenodd" filter="url(#a)" transform="scale(1 -1) rotate(83 330.284 -2.174)">
        <path d="M320.819 34.284s-.004.003-.008.011a.198.198 0 0 0 .012-.02s0 .005-.004.009m-.015.034c.003-.008.003-.012.007-.02v-.003c0 .008-.004.011-.007.023m-.004.004c-.012.003-.012.007-.012.011-.007.012-.015.027-.03.038-.012.023-.031.046-.039.065a21.773 21.773 0 0 1-4.414 5.012c-.011.003-.015.007-.015.015l-.931.709-.038.045-.962.725-16.123 12.088-53.35 39.986-114.637 85.922 10.605 85.902.322 2.378c.011.007.011.015.011.034a21.064 21.064 0 0 0 2.15 6.292c.015.038.03.057.038.084.008.004.016.02.02.034 0 .008.01.008.01.008.009.015.009.023.02.03 0 .008 0 .016.004.023.107.214.23.416.356.622.1.183.21.373.326.56.008 0 .008.007.015.011.008.012.008.016.02.027v.011c.007.016.018.035.034.046.015.027.034.05.046.076a21.792 21.792 0 0 0 18.414 10.1c7.663 0 14.395-3.94 18.28-9.894 0-.007.015-.019.015-.023.02-.03.157-.247.2-.308 0-.008.007-.008.007-.008.123-.202.61-1.04.728-1.258L318.263 38.701l.71-1.212s1.624-2.805 1.83-3.171c-.003 0-.003 0-.003.004" opacity=".1"/>
        <path d="M21.828.197h-.076s-.02 0-.035.007h-.085c-7.234.29-14.158 4.14-18.047 10.824-3.84 6.611-3.779 14.39-.527 20.72.004.003.004.011.016.019.011.034.13.26.161.332a27.588 27.588 0 0 0 .749 1.267L140.67 268.601l.707 1.205s1.785 3.068 1.866 3.213c0-.008-.004-.016-.004-.023-.004-.008-.004-.015-.015-.027 0-.004-.008-.004-.008-.011-.011-.016-.015-.03-.023-.035-.008-.026-.027-.057-.03-.084a21.286 21.286 0 0 1-2.163-6.302v-.03l-.169-1.157-.011-.046-.15-1.197-2.469-19.957-8.16-66.017v-.004l-17.53-141.85L32.247 2.425l-2.239-.912c-.015-.008-.027-.008-.027-.008a21.736 21.736 0 0 0-6.604-1.3h-.073s-.02-.008-.035-.008h-.061c-.238-.008-.48-.008-.726-.008-.211 0-.43 0-.653.008M143.244 273.02c.004.007.004.007 0 0" opacity=".2"/>
    </g>
</svg>
