<svg xmlns="http://www.w3.org/2000/svg" xmlns:xlink="http://www.w3.org/1999/xlink" width="48" height="48" viewBox="0 0 48 48">
    <defs>
        <path id="a" d="M32.296 26.857c3.473 0 6.297 2.848 6.297 6.35 0 1.174-.339 2.26-.893 3.204l2.467 2.487a1.594 1.594 0 0 1-.01 2.254 1.567 1.567 0 0 1-2.216-.01l-2.467-2.486c-.936.558-2.013.9-3.178.9-3.472 0-6.296-2.848-6.296-6.35 0-3.501 2.824-6.349 6.296-6.349zM23.166 4c6.964 0 14.167 5.343 14.167 14.286 0 1.673-.51 3.522-1.31 5.414a9.322 9.322 0 0 0-3.412-.652c-5.208 0-9.444 4.271-9.444 9.523 0 2.375.872 4.543 2.303 6.215a58.425 58.425 0 0 1-1.186 1.254 1.568 1.568 0 0 1-2.235 0C21.517 39.497 9 26.68 9 18.286 9 9.343 16.203 4 23.167 4zm9.13 26.032c-1.736 0-3.148 1.424-3.148 3.174 0 1.751 1.412 3.175 3.148 3.175 1.736 0 3.148-1.424 3.148-3.175 0-1.75-1.412-3.174-3.148-3.174zm-9.13-16.508c-2.608 0-4.722 2.132-4.722 4.762 0 2.63 2.114 4.762 4.723 4.762 2.608 0 4.722-2.132 4.722-4.762 0-2.63-2.114-4.762-4.722-4.762z"/>
    </defs>
    <g fill="none" fill-rule="evenodd">
        <mask id="b" fill="#fff">
            <use xlink:href="#a"/>
        </mask>
        <use fill="#1B2031" fill-rule="nonzero" xlink:href="#a"/>
        <g fill="#FF9800" mask="url(#b)">
            <path d="M0 0h48v48H0z"/>
        </g>
    </g>
</svg>
