<svg xmlns="http://www.w3.org/2000/svg" xmlns:xlink="http://www.w3.org/1999/xlink" width="48" height="48" viewBox="0 0 48 48">
    <defs>
        <path id="a" d="M24 4C12.972 4 4 12.972 4 24v15c0 2.757 2.243 5 5 5h6.667c.921 0 1.666-.747 1.666-1.667V29c0-.92-.745-1.667-1.666-1.667H7.333V24C7.333 14.81 14.81 7.333 24 7.333c9.19 0 16.667 7.477 16.667 16.667v3.333h-8.334c-.921 0-1.666.747-1.666 1.667v13.333c0 .92.745 1.667 1.666 1.667H39c2.757 0 5-2.243 5-5V24c0-11.028-8.972-20-20-20z"/>
    </defs>
    <g fill="none" fill-rule="evenodd">
        <mask id="b" fill="#fff">
            <use xlink:href="#a"/>
        </mask>
        <use fill="#687089" fill-rule="nonzero" xlink:href="#a"/>
        <g fill="#FF9800" mask="url(#b)">
            <path d="M0 0h48v48H0z"/>
        </g>
    </g>
</svg>
