<svg xmlns="http://www.w3.org/2000/svg" width="24" height="24" fill="none" viewBox="0 0 24 24">
    <path fill="#FF9800" fill-rule="evenodd" d="M19.875 2.375L16.5 5.75C15.125 5 13.625 4.5 12 4.5c-4.5 0-8 3.875-9.5 6.125-.625.875-.625 2 0 2.75.625 1 1.75 2.25 3 3.375l-3.125 3.125c-.5.5-.5 1.25 0 1.75.25.25.5.375.875.375s.625-.125.875-.375l17.5-17.5c.5-.5.5-1.25 0-1.75s-1.25-.5-1.75 0zm-11.25 11.25c-.25-.5-.375-1-.375-1.625 0-2.125 1.625-3.75 3.75-3.75a3.46 3.46 0 0 1 1.625.375l-5 5zM10 19.25L20.25 9c.22.274.438.524.637.75.253.29.473.54.613.75.625.875.625 2 0 2.875-1.5 2.25-5 6.125-9.5 6.125-.625 0-1.375-.125-2-.25z" clip-rule="evenodd"/>
    <mask id="a" width="20" height="20" x="2" y="2" maskUnits="userSpaceOnUse">
        <path fill="#fff" fill-rule="evenodd" d="M19.875 2.375L16.5 5.75C15.125 5 13.625 4.5 12 4.5c-4.5 0-8 3.875-9.5 6.125-.625.875-.625 2 0 2.75.625 1 1.75 2.25 3 3.375l-3.125 3.125c-.5.5-.5 1.25 0 1.75.25.25.5.375.875.375s.625-.125.875-.375l17.5-17.5c.5-.5.5-1.25 0-1.75s-1.25-.5-1.75 0zm-11.25 11.25c-.25-.5-.375-1-.375-1.625 0-2.125 1.625-3.75 3.75-3.75a3.46 3.46 0 0 1 1.625.375l-5 5zM10 19.25L20.25 9c.22.274.438.524.637.75.253.29.473.54.613.75.625.875.625 2 0 2.875-1.5 2.25-5 6.125-9.5 6.125-.625 0-1.375-.125-2-.25z" clip-rule="evenodd"/>
    </mask>
</svg>
