<!--<svg xmlns="http://www.w3.org/2000/svg" xmlns:xlink="http://www.w3.org/1999/xlink" width="24" height="24" viewBox="0 0 24 24">-->
<!--    <defs>-->
<!--        <path id="a" d="M15.333 19a.833.833 0 0 1 .105 1.66l-.105.007h-12.5a.833.833 0 0 1-.104-1.66L2.833 19h12.5zm0-10.833a4.171 4.171 0 0 1 4.167 4.166 4.14 4.14 0 0 1-.694 2.294l2.95 2.95a.832.832 0 1 1-1.178 1.179l-2.95-2.95a4.14 4.14 0 0 1-2.295.694 4.171 4.171 0 0 1-4.166-4.167 4.171 4.171 0 0 1 4.166-4.166zM8.667 14c.424 0 .775.318.827.729l.006.104-.006.105a.834.834 0 0 1-.723.722l-.104.007H2.833a.833.833 0 0 1-.104-1.66L2.833 14h5.834zm6.666-4.167a2.5 2.5 0 1 0 0 5 2.5 2.5 0 0 0 0-5zM8.667 9c.424 0 .775.318.827.729l.006.104-.006.105a.834.834 0 0 1-.723.722l-.104.007H2.833a.833.833 0 0 1-.104-1.66L2.833 9h5.834zM2.833 4h12.5a.833.833 0 0 1 .105 1.66l-.105.007h-12.5a.833.833 0 0 1-.104-1.66L2.833 4h12.5z"/>-->
<!--    </defs>-->
<!--    <g fill="none" fill-rule="evenodd">-->
<!--        <mask id="b" fill="#fff">-->
<!--            <use xlink:href="#a"/>-->
<!--        </mask>-->
<!--        <use fill="#1B2031" fill-rule="nonzero" xlink:href="#a"/>-->
<!--        <g fill="#AD8AD8" mask="url(#b)">-->
<!--            <path d="M0 0h24v24H0z"/>-->
<!--        </g>-->
<!--    </g>-->
<!--</svg>-->
<svg xmlns="http://www.w3.org/2000/svg" xmlns:xlink="http://www.w3.org/1999/xlink" width="24" height="24" viewBox="0 0 24 24">
<path fill="#AD8AD8" fill-rule="evenodd"  clip-rule="evenodd" id="a" d="M15.333 19a.833.833 0 0 1 .105 1.66l-.105.007h-12.5a.833.833 0 0 1-.104-1.66L2.833 19h12.5zm0-10.833a4.171 4.171 0 0 1 4.167 4.166 4.14 4.14 0 0 1-.694 2.294l2.95 2.95a.832.832 0 1 1-1.178 1.179l-2.95-2.95a4.14 4.14 0 0 1-2.295.694 4.171 4.171 0 0 1-4.166-4.167 4.171 4.171 0 0 1 4.166-4.166zM8.667 14c.424 0 .775.318.827.729l.006.104-.006.105a.834.834 0 0 1-.723.722l-.104.007H2.833a.833.833 0 0 1-.104-1.66L2.833 14h5.834zm6.666-4.167a2.5 2.5 0 1 0 0 5 2.5 2.5 0 0 0 0-5zM8.667 9c.424 0 .775.318.827.729l.006.104-.006.105a.834.834 0 0 1-.723.722l-.104.007H2.833a.833.833 0 0 1-.104-1.66L2.833 9h5.834zM2.833 4h12.5a.833.833 0 0 1 .105 1.66l-.105.007h-12.5a.833.833 0 0 1-.104-1.66L2.833 4h12.5z"/>
<mask id="b" maskUnits="userSpaceOnUse" fill-rule="evenodd">
  <path fill="#fff" fill-rule="evenodd"  clip-rule="evenodd" id="a" d="M15.333 19a.833.833 0 0 1 .105 1.66l-.105.007h-12.5a.833.833 0 0 1-.104-1.66L2.833 19h12.5zm0-10.833a4.171 4.171 0 0 1 4.167 4.166 4.14 4.14 0 0 1-.694 2.294l2.95 2.95a.832.832 0 1 1-1.178 1.179l-2.95-2.95a4.14 4.14 0 0 1-2.295.694 4.171 4.171 0 0 1-4.166-4.167 4.171 4.171 0 0 1 4.166-4.166zM8.667 14c.424 0 .775.318.827.729l.006.104-.006.105a.834.834 0 0 1-.723.722l-.104.007H2.833a.833.833 0 0 1-.104-1.66L2.833 14h5.834zm6.666-4.167a2.5 2.5 0 1 0 0 5 2.5 2.5 0 0 0 0-5zM8.667 9c.424 0 .775.318.827.729l.006.104-.006.105a.834.834 0 0 1-.723.722l-.104.007H2.833a.833.833 0 0 1-.104-1.66L2.833 9h5.834zM2.833 4h12.5a.833.833 0 0 1 .105 1.66l-.105.007h-12.5a.833.833 0 0 1-.104-1.66L2.833 4h12.5z"/>
</mask>
</svg>
