<!--<svg xmlns="http://www.w3.org/2000/svg" xmlns:xlink="http://www.w3.org/1999/xlink" width="30" height="30" viewBox="0 0 30 30">-->
<!--    <defs>-->
<!--        <path id="a" d="M27.5 23.819v1.337c0 1.295-2.448 2.344-5.469 2.344-2.929 0-5.32-.987-5.462-2.227l-.006-.117V23.82c1.247.838 3.163 1.337 5.468 1.337 2.306 0 4.221-.499 5.469-1.337zm0-3.906v1.337c0 1.295-2.448 2.344-5.469 2.344-2.929 0-5.32-.987-5.462-2.227l-.006-.117v-1.337c1.247.838 3.163 1.337 5.468 1.337 2.306 0 4.221-.5 5.469-1.337zM26.719 2.5c.395 0 .722.294.774.675l.007.106v11.495c-.729-.49-1.688-.862-2.818-1.088l-.344-.064V8.75h-.781c-1.28 0-2.26-.926-2.339-2.179l-.005-.165v-.781h-12.5v.781c0 1.28-.925 2.26-2.178 2.339l-.165.005h-.782V15h.782c1.28 0 2.259.926 2.338 2.179l.005.165v.781H15v3.125H3.281a.782.782 0 0 1-.774-.675l-.007-.106V3.28c0-.395.294-.722.675-.774l.106-.007H26.72zM22.03 15c3.02 0 5.469 1.05 5.469 2.344 0 1.294-2.448 2.343-5.469 2.343-3.02 0-5.468-1.049-5.468-2.343 0-1.295 2.448-2.344 5.468-2.344zm-2.305-7.813a3.842 3.842 0 0 0 2.849 3.006l.2.045v3.22c-.244-.012-.49-.02-.745-.02-3.535 0-6.398 1.267-6.935 2.977l-.04.148H10.2a3.844 3.844 0 0 0-2.85-3.007l-.2-.044v-3.274a3.842 3.842 0 0 0 3.005-2.85l.045-.2h9.525zM15 10.313a1.562 1.562 0 1 0 0 3.125 1.562 1.562 0 0 0 0-3.124z"/>-->
<!--    </defs>-->
<!--    <g fill="none" fill-rule="evenodd">-->
<!--        <mask id="b" fill="#fff">-->
<!--            <use xlink:href="#a"/>-->
<!--        </mask>-->
<!--&lt;!&ndash;        <use fill="#687089" fill-rule="nonzero" xlink:href="#a"/>&ndash;&gt;-->
<!--        <g fill="#E0BBE4" mask="url(#b)">-->
<!--            <path d="M0 0h30v30H0z"/>-->
<!--        </g>-->
<!--    </g>-->
<!--</svg>-->
<svg xmlns="http://www.w3.org/2000/svg" xmlns:xlink="http://www.w3.org/1999/xlink" width="30" height="30" viewBox="0 0 30 30">
  <path fill="#E0BBE4" fill-rule="evenodd"  clip-rule="evenodd" id="a" d="M27.5 23.819v1.337c0 1.295-2.448 2.344-5.469 2.344-2.929 0-5.32-.987-5.462-2.227l-.006-.117V23.82c1.247.838 3.163 1.337 5.468 1.337 2.306 0 4.221-.499 5.469-1.337zm0-3.906v1.337c0 1.295-2.448 2.344-5.469 2.344-2.929 0-5.32-.987-5.462-2.227l-.006-.117v-1.337c1.247.838 3.163 1.337 5.468 1.337 2.306 0 4.221-.5 5.469-1.337zM26.719 2.5c.395 0 .722.294.774.675l.007.106v11.495c-.729-.49-1.688-.862-2.818-1.088l-.344-.064V8.75h-.781c-1.28 0-2.26-.926-2.339-2.179l-.005-.165v-.781h-12.5v.781c0 1.28-.925 2.26-2.178 2.339l-.165.005h-.782V15h.782c1.28 0 2.259.926 2.338 2.179l.005.165v.781H15v3.125H3.281a.782.782 0 0 1-.774-.675l-.007-.106V3.28c0-.395.294-.722.675-.774l.106-.007H26.72zM22.03 15c3.02 0 5.469 1.05 5.469 2.344 0 1.294-2.448 2.343-5.469 2.343-3.02 0-5.468-1.049-5.468-2.343 0-1.295 2.448-2.344 5.468-2.344zm-2.305-7.813a3.842 3.842 0 0 0 2.849 3.006l.2.045v3.22c-.244-.012-.49-.02-.745-.02-3.535 0-6.398 1.267-6.935 2.977l-.04.148H10.2a3.844 3.844 0 0 0-2.85-3.007l-.2-.044v-3.274a3.842 3.842 0 0 0 3.005-2.85l.045-.2h9.525zM15 10.313a1.562 1.562 0 1 0 0 3.125 1.562 1.562 0 0 0 0-3.124z"/>
  <mask id="b" maskUnits="userSpaceOnUse" fill-rule="evenodd">
    <path fill="#fff" fill-rule="evenodd"  clip-rule="evenodd" id="a" d="M27.5 23.819v1.337c0 1.295-2.448 2.344-5.469 2.344-2.929 0-5.32-.987-5.462-2.227l-.006-.117V23.82c1.247.838 3.163 1.337 5.468 1.337 2.306 0 4.221-.499 5.469-1.337zm0-3.906v1.337c0 1.295-2.448 2.344-5.469 2.344-2.929 0-5.32-.987-5.462-2.227l-.006-.117v-1.337c1.247.838 3.163 1.337 5.468 1.337 2.306 0 4.221-.5 5.469-1.337zM26.719 2.5c.395 0 .722.294.774.675l.007.106v11.495c-.729-.49-1.688-.862-2.818-1.088l-.344-.064V8.75h-.781c-1.28 0-2.26-.926-2.339-2.179l-.005-.165v-.781h-12.5v.781c0 1.28-.925 2.26-2.178 2.339l-.165.005h-.782V15h.782c1.28 0 2.259.926 2.338 2.179l.005.165v.781H15v3.125H3.281a.782.782 0 0 1-.774-.675l-.007-.106V3.28c0-.395.294-.722.675-.774l.106-.007H26.72zM22.03 15c3.02 0 5.469 1.05 5.469 2.344 0 1.294-2.448 2.343-5.469 2.343-3.02 0-5.468-1.049-5.468-2.343 0-1.295 2.448-2.344 5.468-2.344zm-2.305-7.813a3.842 3.842 0 0 0 2.849 3.006l.2.045v3.22c-.244-.012-.49-.02-.745-.02-3.535 0-6.398 1.267-6.935 2.977l-.04.148H10.2a3.844 3.844 0 0 0-2.85-3.007l-.2-.044v-3.274a3.842 3.842 0 0 0 3.005-2.85l.045-.2h9.525zM15 10.313a1.562 1.562 0 1 0 0 3.125 1.562 1.562 0 0 0 0-3.124z"/>
  </mask>
</svg>
