<svg xmlns="http://www.w3.org/2000/svg" width="30" height="30" viewBox="0 0 30 30">
    <path fill="#FEB2A8" fill-rule="evenodd" d="M24.375 12.917c.576 0 1.042.466 1.042 1.041v6.25c0 .062-.025.115-.035.174.56.548.9 1.167 1.033 1.61l.283.947-11.97 4.291a6.32 6.32 0 0 1-1.549.201 5.039 5.039 0 0 1-1.773-.31L2.5 23.41V15h4.167v-1.042c0-.575.466-1.041 1.041-1.041zM7.708 17.083H4.583v4.938l7.589 3.164c.548.205 1.252.229 1.951.054l9.702-3.482c-.327-.274-.816-.507-1.533-.507h-3.23c.07.337.105.685.105 1.042v1.041h-8.334V21.25h6.072a3.131 3.131 0 0 0-2.947-2.083H11.33l-.312-.449c-.719-1.039-1.925-1.635-3.31-1.635zM20.208 2.5a3.128 3.128 0 0 1 3.125 3.125c0 .367-.075.714-.192 1.042h3.317c.576 0 1.042.466 1.042 1.041v2.084c0 .575-.466 1.041-1.042 1.041H5.625a1.041 1.041 0 0 1-1.042-1.041V7.708c0-.575.466-1.041 1.042-1.041h3.317a3.088 3.088 0 0 1-.192-1.042A3.128 3.128 0 0 1 11.875 2.5c2.067 0 3.378 1.338 4.167 2.625.788-1.287 2.1-2.625 4.166-2.625zm0 2.083c-1.317 0-2.166 1.13-2.649 2.084h2.65a1.043 1.043 0 0 0 0-2.084zm-8.333 0a1.043 1.043 0 0 0 0 2.084h2.649c-.482-.953-1.332-2.084-2.649-2.084z"/>
</svg>
