<!--<svg xmlns="http://www.w3.org/2000/svg" xmlns:xlink="http://www.w3.org/1999/xlink" width="30" height="30" viewBox="0 0 30 30">-->
<!--    <defs>-->
<!--        <path id="a" d="M21.25 2.5H8.75a3.129 3.129 0 0 0-3.125 3.125v18.75A3.129 3.129 0 0 0 8.75 27.5h12.5a3.129 3.129 0 0 0 3.125-3.125V5.625A3.129 3.129 0 0 0 21.25 2.5zM15 25.417a1.042 1.042 0 1 1 0-2.084 1.042 1.042 0 0 1 0 2.084zm7.292-5.209c0 .575-.467 1.042-1.042 1.042H8.75a1.042 1.042 0 0 1-1.042-1.042V6.667c0-.575.467-1.042 1.042-1.042h12.5c.575 0 1.042.467 1.042 1.042v13.541z"/>-->
<!--    </defs>-->
<!--    <g fill="none" fill-rule="evenodd">-->
<!--        <mask id="b" fill="#fff">-->
<!--            <use xlink:href="#a"/>-->
<!--        </mask>-->
<!--&lt;!&ndash;        <use fill="#1B2031" fill-rule="nonzero" xlink:href="#a"/>&ndash;&gt;-->
<!--        <g fill="#FF8ADE" mask="url(#b)">-->
<!--            <path d="M0 0h30v30H0z"/>-->
<!--        </g>-->
<!--    </g>-->
<!--</svg>-->
<svg xmlns="http://www.w3.org/2000/svg" xmlns:xlink="http://www.w3.org/1999/xlink" width="30" height="30" viewBox="0 0 30 30">
<path fill="#FF8ADE" fill-rule="evenodd"  clip-rule="evenodd" id="a" d="M21.25 2.5H8.75a3.129 3.129 0 0 0-3.125 3.125v18.75A3.129 3.129 0 0 0 8.75 27.5h12.5a3.129 3.129 0 0 0 3.125-3.125V5.625A3.129 3.129 0 0 0 21.25 2.5zM15 25.417a1.042 1.042 0 1 1 0-2.084 1.042 1.042 0 0 1 0 2.084zm7.292-5.209c0 .575-.467 1.042-1.042 1.042H8.75a1.042 1.042 0 0 1-1.042-1.042V6.667c0-.575.467-1.042 1.042-1.042h12.5c.575 0 1.042.467 1.042 1.042v13.541z"/>
<mask id="b" maskUnits="userSpaceOnUse" fill-rule="evenodd">
  <path fill="#fff" fill-rule="evenodd"  clip-rule="evenodd" id="a" d="M21.25 2.5H8.75a3.129 3.129 0 0 0-3.125 3.125v18.75A3.129 3.129 0 0 0 8.75 27.5h12.5a3.129 3.129 0 0 0 3.125-3.125V5.625A3.129 3.129 0 0 0 21.25 2.5zM15 25.417a1.042 1.042 0 1 1 0-2.084 1.042 1.042 0 0 1 0 2.084zm7.292-5.209c0 .575-.467 1.042-1.042 1.042H8.75a1.042 1.042 0 0 1-1.042-1.042V6.667c0-.575.467-1.042 1.042-1.042h12.5c.575 0 1.042.467 1.042 1.042v13.541z"/>
</mask>
</svg>
