<!--<svg xmlns="http://www.w3.org/2000/svg" xmlns:xlink="http://www.w3.org/1999/xlink" width="30" height="30" viewBox="0 0 30 30">-->
<!--    <defs>-->
<!--        <path id="a" d="M7.56 7.719c.918-.124 2.8.17 3.916 2.073h8.211c4.309 0 7.813 3.504 7.813 7.812 0 4.132-3.227 7.517-7.292 7.787V27.5h-2.083v-2.083h-4.167V27.5h-2.083v-2.119a7.778 7.778 0 0 1-6.39-4.131H2.5v-7.292h2.992a7.785 7.785 0 0 1 1.952-2.393L6.373 7.889zm12.648 6.24h-7.291v2.083h7.291v-2.084zM16.563 2.5a2.604 2.604 0 1 1 0 5.208 2.604 2.604 0 0 1 0-5.208z"/>-->
<!--    </defs>-->
<!--    <g fill="none" fill-rule="evenodd">-->
<!--        <mask id="b" fill="#fff">-->
<!--            <use xlink:href="#a"/>-->
<!--        </mask>-->
<!--&lt;!&ndash;        <use fill="#1B2031" fill-rule="nonzero" xlink:href="#a"/>&ndash;&gt;-->
<!--        <g fill="#C9C9FF" mask="url(#b)">-->
<!--            <path d="M0 0h30v30H0z"/>-->
<!--        </g>-->
<!--    </g>-->
<!--</svg>-->
<svg xmlns="http://www.w3.org/2000/svg" xmlns:xlink="http://www.w3.org/1999/xlink" width="30" height="30" viewBox="0 0 30 30">
<path fill="#C9C9FF" fill-rule="evenodd"  clip-rule="evenodd" id="a" d="M7.56 7.719c.918-.124 2.8.17 3.916 2.073h8.211c4.309 0 7.813 3.504 7.813 7.812 0 4.132-3.227 7.517-7.292 7.787V27.5h-2.083v-2.083h-4.167V27.5h-2.083v-2.119a7.778 7.778 0 0 1-6.39-4.131H2.5v-7.292h2.992a7.785 7.785 0 0 1 1.952-2.393L6.373 7.889zm12.648 6.24h-7.291v2.083h7.291v-2.084zM16.563 2.5a2.604 2.604 0 1 1 0 5.208 2.604 2.604 0 0 1 0-5.208z"/>
<mask id="b" maskUnits="userSpaceOnUse" fill-rule="evenodd">
  <path fill="#fff" fill-rule="evenodd"  clip-rule="evenodd" id="a" d="M7.56 7.719c.918-.124 2.8.17 3.916 2.073h8.211c4.309 0 7.813 3.504 7.813 7.812 0 4.132-3.227 7.517-7.292 7.787V27.5h-2.083v-2.083h-4.167V27.5h-2.083v-2.119a7.778 7.778 0 0 1-6.39-4.131H2.5v-7.292h2.992a7.785 7.785 0 0 1 1.952-2.393L6.373 7.889zm12.648 6.24h-7.291v2.083h7.291v-2.084zM16.563 2.5a2.604 2.604 0 1 1 0 5.208 2.604 2.604 0 0 1 0-5.208z"/>
</mask>
</svg>
