<!--<svg xmlns="http://www.w3.org/2000/svg" xmlns:xlink="http://www.w3.org/1999/xlink" width="24" height="24" viewBox="0 0 24 24">-->
<!--    <defs>-->
<!--        <path id="a" d="M13.818 1.25a.75.75 0 0 1 .744.657l.327 2.61c.774.3 1.496.72 2.142 1.242l2.428-1.025a.75.75 0 0 1 .941.316L22.22 8.2a.75.75 0 0 1-.197.972l-2.097 1.588c.064.41.097.824.098 1.238-.001.418-.034.832-.098 1.242l2.097 1.588a.75.75 0 0 1 .197.972L20.4 18.95a.75.75 0 0 1-.94.316l-2.43-1.025a8.011 8.011 0 0 1-2.141 1.243l-.327 2.61a.75.75 0 0 1-.744.656h-3.636a.75.75 0 0 1-.744-.657l-.327-2.61a8.011 8.011 0 0 1-2.142-1.242l-2.428 1.025a.75.75 0 0 1-.941-.316L1.78 15.8a.75.75 0 0 1 .197-.972l2.097-1.588a7.932 7.932 0 0 1 0-2.48L1.978 9.172a.75.75 0 0 1-.197-.972L3.6 5.05a.75.75 0 0 1 .94-.316L6.97 5.76A8.011 8.011 0 0 1 9.11 4.516l.327-2.61a.75.75 0 0 1 .744-.656h3.636zm-.662 1.5h-2.312l-.302 2.411a.75.75 0 0 1-.515.621 6.51 6.51 0 0 0-2.414 1.402.75.75 0 0 1-.798.138l-2.247-.948L3.41 8.376l1.94 1.469a.75.75 0 0 1 .28.76 6.432 6.432 0 0 0 0 2.79.75.75 0 0 1-.28.76l-1.94 1.469 1.157 2.002 2.247-.948a.75.75 0 0 1 .798.138 6.51 6.51 0 0 0 2.414 1.402.75.75 0 0 1 .515.62l.302 2.412h2.312l.302-2.411a.75.75 0 0 1 .515-.621 6.51 6.51 0 0 0 2.414-1.402.75.75 0 0 1 .798-.138l2.247.948 1.157-2.002-1.94-1.469a.75.75 0 0 1-.28-.759c.101-.458.153-.926.154-1.396a6.567 6.567 0 0 0-.154-1.396.75.75 0 0 1 .28-.76l1.94-1.468-1.157-2.002-2.247.948a.75.75 0 0 1-.798-.138 6.51 6.51 0 0 0-2.414-1.402.75.75 0 0 1-.515-.62l-.302-2.412zM12 8.523a3.477 3.477 0 1 1 0 6.954 3.477 3.477 0 0 1 0-6.954zm0 1.5a1.977 1.977 0 1 0 0 3.954 1.977 1.977 0 0 0 0-3.954z"/>-->
<!--    </defs>-->
<!--    <g fill="none" fill-rule="evenodd">-->
<!--        <mask id="b" fill="#fff">-->
<!--            <use xlink:href="#a"/>-->
<!--        </mask>-->
<!--        <use fill="#1B2031" fill-rule="nonzero" xlink:href="#a"/>-->
<!--        <g fill="#AD8AD8" mask="url(#b)">-->
<!--            <path d="M0 0h24v24H0z"/>-->
<!--        </g>-->
<!--    </g>-->
<!--</svg>-->
<svg xmlns="http://www.w3.org/2000/svg" xmlns:xlink="http://www.w3.org/1999/xlink" width="24" height="24" viewBox="0 0 24 24">
<path fill="#AD8AD8" fill-rule="evenodd"  clip-rule="evenodd" id="a" d="M13.818 1.25a.75.75 0 0 1 .744.657l.327 2.61c.774.3 1.496.72 2.142 1.242l2.428-1.025a.75.75 0 0 1 .941.316L22.22 8.2a.75.75 0 0 1-.197.972l-2.097 1.588c.064.41.097.824.098 1.238-.001.418-.034.832-.098 1.242l2.097 1.588a.75.75 0 0 1 .197.972L20.4 18.95a.75.75 0 0 1-.94.316l-2.43-1.025a8.011 8.011 0 0 1-2.141 1.243l-.327 2.61a.75.75 0 0 1-.744.656h-3.636a.75.75 0 0 1-.744-.657l-.327-2.61a8.011 8.011 0 0 1-2.142-1.242l-2.428 1.025a.75.75 0 0 1-.941-.316L1.78 15.8a.75.75 0 0 1 .197-.972l2.097-1.588a7.932 7.932 0 0 1 0-2.48L1.978 9.172a.75.75 0 0 1-.197-.972L3.6 5.05a.75.75 0 0 1 .94-.316L6.97 5.76A8.011 8.011 0 0 1 9.11 4.516l.327-2.61a.75.75 0 0 1 .744-.656h3.636zm-.662 1.5h-2.312l-.302 2.411a.75.75 0 0 1-.515.621 6.51 6.51 0 0 0-2.414 1.402.75.75 0 0 1-.798.138l-2.247-.948L3.41 8.376l1.94 1.469a.75.75 0 0 1 .28.76 6.432 6.432 0 0 0 0 2.79.75.75 0 0 1-.28.76l-1.94 1.469 1.157 2.002 2.247-.948a.75.75 0 0 1 .798.138 6.51 6.51 0 0 0 2.414 1.402.75.75 0 0 1 .515.62l.302 2.412h2.312l.302-2.411a.75.75 0 0 1 .515-.621 6.51 6.51 0 0 0 2.414-1.402.75.75 0 0 1 .798-.138l2.247.948 1.157-2.002-1.94-1.469a.75.75 0 0 1-.28-.759c.101-.458.153-.926.154-1.396a6.567 6.567 0 0 0-.154-1.396.75.75 0 0 1 .28-.76l1.94-1.468-1.157-2.002-2.247.948a.75.75 0 0 1-.798-.138 6.51 6.51 0 0 0-2.414-1.402.75.75 0 0 1-.515-.62l-.302-2.412zM12 8.523a3.477 3.477 0 1 1 0 6.954 3.477 3.477 0 0 1 0-6.954zm0 1.5a1.977 1.977 0 1 0 0 3.954 1.977 1.977 0 0 0 0-3.954z"/>
<mask id="b" maskUnits="userSpaceOnUse" fill-rule="evenodd">
  <path fill="#fff" fill-rule="evenodd"  clip-rule="evenodd" id="a" d="M13.818 1.25a.75.75 0 0 1 .744.657l.327 2.61c.774.3 1.496.72 2.142 1.242l2.428-1.025a.75.75 0 0 1 .941.316L22.22 8.2a.75.75 0 0 1-.197.972l-2.097 1.588c.064.41.097.824.098 1.238-.001.418-.034.832-.098 1.242l2.097 1.588a.75.75 0 0 1 .197.972L20.4 18.95a.75.75 0 0 1-.94.316l-2.43-1.025a8.011 8.011 0 0 1-2.141 1.243l-.327 2.61a.75.75 0 0 1-.744.656h-3.636a.75.75 0 0 1-.744-.657l-.327-2.61a8.011 8.011 0 0 1-2.142-1.242l-2.428 1.025a.75.75 0 0 1-.941-.316L1.78 15.8a.75.75 0 0 1 .197-.972l2.097-1.588a7.932 7.932 0 0 1 0-2.48L1.978 9.172a.75.75 0 0 1-.197-.972L3.6 5.05a.75.75 0 0 1 .94-.316L6.97 5.76A8.011 8.011 0 0 1 9.11 4.516l.327-2.61a.75.75 0 0 1 .744-.656h3.636zm-.662 1.5h-2.312l-.302 2.411a.75.75 0 0 1-.515.621 6.51 6.51 0 0 0-2.414 1.402.75.75 0 0 1-.798.138l-2.247-.948L3.41 8.376l1.94 1.469a.75.75 0 0 1 .28.76 6.432 6.432 0 0 0 0 2.79.75.75 0 0 1-.28.76l-1.94 1.469 1.157 2.002 2.247-.948a.75.75 0 0 1 .798.138 6.51 6.51 0 0 0 2.414 1.402.75.75 0 0 1 .515.62l.302 2.412h2.312l.302-2.411a.75.75 0 0 1 .515-.621 6.51 6.51 0 0 0 2.414-1.402.75.75 0 0 1 .798-.138l2.247.948 1.157-2.002-1.94-1.469a.75.75 0 0 1-.28-.759c.101-.458.153-.926.154-1.396a6.567 6.567 0 0 0-.154-1.396.75.75 0 0 1 .28-.76l1.94-1.468-1.157-2.002-2.247.948a.75.75 0 0 1-.798-.138 6.51 6.51 0 0 0-2.414-1.402.75.75 0 0 1-.515-.62l-.302-2.412zM12 8.523a3.477 3.477 0 1 1 0 6.954 3.477 3.477 0 0 1 0-6.954zm0 1.5a1.977 1.977 0 1 0 0 3.954 1.977 1.977 0 0 0 0-3.954z"/>
</mask>
</svg>
