<!--<svg xmlns="http://www.w3.org/2000/svg" xmlns:xlink="http://www.w3.org/1999/xlink" width="30" height="30" viewBox="0 0 30 30">-->
<!--    <defs>-->
<!--        <path id="a" d="M16.258 22.292l4.447.978-1.675 1.216a3.122 3.122 0 0 0 5.246-1.412l2.019.52A5.208 5.208 0 0 1 21.25 27.5a5.22 5.22 0 0 1-3.91-1.785l-1.527 1.109.445-4.532zM5.625 2.5h18.75a3.13 3.13 0 0 1 3.12 2.948l.005.177v8.333H4.583v5.209c0 .535.407.978.929 1.035l.113.006h7.292v2.084H5.625a3.13 3.13 0 0 1-3.12-2.948l-.005-.177V5.625a3.13 3.13 0 0 1 2.948-3.12l.177-.005h18.75zM21.25 16.042c1.423 0 2.764.594 3.733 1.593l.177.192 1.527-1.11-.445 4.533-4.447-.978 1.675-1.217a3.123 3.123 0 0 0-5.195 1.235l-.051.178-2.019-.52a5.208 5.208 0 0 1 5.045-3.906zm3.125-11.459H5.625c-.537 0-.979.408-1.036.929l-.006.113v2.083h20.834V5.625c0-.574-.467-1.042-1.042-1.042z"/>-->
<!--    </defs>-->
<!--    <g fill="none" fill-rule="evenodd">-->
<!--        <mask id="b" fill="#fff">-->
<!--            <use xlink:href="#a"/>-->
<!--        </mask>-->
<!--&lt;!&ndash;        <use fill="#1B2031" fill-rule="nonzero" xlink:href="#a"/>&ndash;&gt;-->
<!--        <g fill="#8EDAF3" mask="url(#b)">-->
<!--            <path d="M0 0h30v30H0z"/>-->
<!--        </g>-->
<!--    </g>-->
<!--</svg>-->
<svg xmlns="http://www.w3.org/2000/svg" xmlns:xlink="http://www.w3.org/1999/xlink" width="30" height="30" viewBox="0 0 30 30">
<path fill="#8EDAF3" fill-rule="evenodd"  clip-rule="evenodd" id="a" d="M16.258 22.292l4.447.978-1.675 1.216a3.122 3.122 0 0 0 5.246-1.412l2.019.52A5.208 5.208 0 0 1 21.25 27.5a5.22 5.22 0 0 1-3.91-1.785l-1.527 1.109.445-4.532zM5.625 2.5h18.75a3.13 3.13 0 0 1 3.12 2.948l.005.177v8.333H4.583v5.209c0 .535.407.978.929 1.035l.113.006h7.292v2.084H5.625a3.13 3.13 0 0 1-3.12-2.948l-.005-.177V5.625a3.13 3.13 0 0 1 2.948-3.12l.177-.005h18.75zM21.25 16.042c1.423 0 2.764.594 3.733 1.593l.177.192 1.527-1.11-.445 4.533-4.447-.978 1.675-1.217a3.123 3.123 0 0 0-5.195 1.235l-.051.178-2.019-.52a5.208 5.208 0 0 1 5.045-3.906zm3.125-11.459H5.625c-.537 0-.979.408-1.036.929l-.006.113v2.083h20.834V5.625c0-.574-.467-1.042-1.042-1.042z"/>
<mask id="b" maskUnits="userSpaceOnUse" fill-rule="evenodd">
  <path fill="#fff" fill-rule="evenodd"  clip-rule="evenodd" id="a" d="M16.258 22.292l4.447.978-1.675 1.216a3.122 3.122 0 0 0 5.246-1.412l2.019.52A5.208 5.208 0 0 1 21.25 27.5a5.22 5.22 0 0 1-3.91-1.785l-1.527 1.109.445-4.532zM5.625 2.5h18.75a3.13 3.13 0 0 1 3.12 2.948l.005.177v8.333H4.583v5.209c0 .535.407.978.929 1.035l.113.006h7.292v2.084H5.625a3.13 3.13 0 0 1-3.12-2.948l-.005-.177V5.625a3.13 3.13 0 0 1 2.948-3.12l.177-.005h18.75zM21.25 16.042c1.423 0 2.764.594 3.733 1.593l.177.192 1.527-1.11-.445 4.533-4.447-.978 1.675-1.217a3.123 3.123 0 0 0-5.195 1.235l-.051.178-2.019-.52a5.208 5.208 0 0 1 5.045-3.906zm3.125-11.459H5.625c-.537 0-.979.408-1.036.929l-.006.113v2.083h20.834V5.625c0-.574-.467-1.042-1.042-1.042z"/>
</mask>
</svg>
