<svg width="24" height="24" viewBox="0 0 24 24" fill="none" xmlns="http://www.w3.org/2000/svg">
<path fill-rule="evenodd" clip-rule="evenodd" d="M17.4898 2.26495C17.7334 1.96053 18.1776 1.91117 18.482 2.15471C18.7864 2.39824 18.8358 2.84245 18.5922 3.14687L5.98485 18.9061C5.72204 19.2346 5.23201 19.2618 4.93452 18.9643L0.206748 14.2365C-0.0689161 13.9608 -0.0689161 13.5139 0.206748 13.2382C0.482412 12.9626 0.929352 12.9626 1.20502 13.2382L5.37512 17.4083L17.4898 2.26495ZM23.2941 6.20249C23.684 6.20249 24 6.51852 24 6.90837C24 7.29822 23.684 7.61425 23.2941 7.61425H21.1929C20.803 7.61425 20.487 7.29822 20.487 6.90837C20.487 6.51852 20.803 6.20249 21.1929 6.20249H23.2941ZM24 11.6361C24 11.2463 23.684 10.9303 23.2941 10.9303H17.5157C17.1259 10.9303 16.8098 11.2463 16.8098 11.6361C16.8098 12.026 17.1259 12.342 17.5157 12.342H23.2941C23.684 12.342 24 12.026 24 11.6361ZM23.2941 15.658C23.684 15.658 24 15.9741 24 16.3639C24 16.7538 23.684 17.0698 23.2941 17.0698H13.8386C13.4487 17.0698 13.1327 16.7538 13.1327 16.3639C13.1327 15.9741 13.4487 15.658 13.8386 15.658H23.2941ZM24 21.0917C24 20.7018 23.684 20.3858 23.2941 20.3858H10.1614C9.77157 20.3858 9.45554 20.7018 9.45554 21.0917C9.45554 21.4815 9.77157 21.7976 10.1614 21.7976H23.2941C23.684 21.7976 24 21.4815 24 21.0917Z" fill="#FF9800"/>
</svg>
