<svg xmlns="http://www.w3.org/2000/svg" xmlns:xlink="http://www.w3.org/1999/xlink" width="100" height="31" viewBox="0 0 100 31">
    <defs>
        <path id="a" d="M.377.102C.16.332.034.692.034 1.156V17.74c0 .465.126.824.343 1.055l.054.05 9.176-9.289v-.22L.431.048.377.102z"/>
        <path id="c" d="M.089 3.164v.22L3.144 6.48l.073-.04 3.622-2.084c1.034-.596 1.034-1.57 0-2.163L3.217.106l-.069-.04L.089 3.164z"/>
        <path id="d" d="M.016 9.412c.343.366.903.41 1.54.044l10.817-6.225L9.246.064.016 9.412z"/>
        <path id="f" d="M.016.349l9.23 9.344 3.127-3.167L1.556.3C1.258.13.976.05.726.05a.945.945 0 0 0-.71.298"/>
    </defs>
    <g fill="none" fill-rule="evenodd">
        <path fill="#000000" d="M96.258 30.415H3.702C1.667 30.415 0 28.727 0 26.665V4.17C0 2.107 1.667.419 3.702.419h92.556c2.035 0 3.702 1.688 3.702 3.75v22.497c0 2.061-1.667 3.75-3.702 3.75"/>
        <path fill="#FFF" d="M35.11 8.101c0 .626-.185 1.128-.55 1.502-.419.443-.965.666-1.634.666-.64 0-1.186-.227-1.634-.674-.449-.453-.673-1.01-.673-1.677 0-.666.224-1.223.673-1.673a2.22 2.22 0 0 1 1.634-.678 2.3 2.3 0 0 1 .911.19c.29.125.524.294.695.502l-.387.396c-.297-.356-.702-.53-1.22-.53-.466 0-.87.164-1.214.497-.34.334-.51.766-.51 1.296s.17.967.51 1.3c.344.33.748.498 1.215.498.495 0 .911-.169 1.24-.501.217-.22.34-.524.372-.912h-1.612V7.76h2.15c.027.117.034.23.034.34"/>
        <path stroke="#FFF" stroke-width=".16" d="M35.11 8.101c0 .626-.185 1.128-.55 1.502-.419.443-.965.666-1.634.666-.64 0-1.186-.227-1.634-.674-.449-.453-.673-1.01-.673-1.677 0-.666.224-1.223.673-1.673a2.22 2.22 0 0 1 1.634-.678 2.3 2.3 0 0 1 .911.19c.29.125.524.294.695.502l-.387.396c-.297-.356-.702-.53-1.22-.53-.466 0-.87.164-1.214.497-.34.334-.51.766-.51 1.296s.17.967.51 1.3c.344.33.748.498 1.215.498.495 0 .911-.169 1.24-.501.217-.22.34-.524.372-.912h-1.612V7.76h2.15c.027.117.034.23.034.34z"/>
        <path fill="#FFF" d="M38.523 6.223h-2.02v1.424h1.82v.542h-1.82v1.425h2.02v.552H35.93V5.67h2.593z"/>
        <path stroke="#FFF" stroke-width=".16" d="M38.523 6.223h-2.02v1.424h1.82v.542h-1.82v1.425h2.02v.552H35.93V5.67h2.593z"/>
        <path fill="#FFF" d="M40.931 10.166h-.572V6.223h-1.24V5.67h3.052v.553h-1.24z"/>
        <path stroke="#FFF" stroke-width=".16" d="M40.931 10.166h-.572V6.223h-1.24V5.67h3.052v.553h-1.24z"/>
        <path fill="#FFF" d="M44.38 10.166h.57V5.67h-.57z"/>
        <path stroke="#FFF" stroke-width=".16" d="M44.38 10.166h.57V5.67h-.57z"/>
        <path fill="#FFF" d="M47.482 10.166h-.567V6.223H45.67V5.67h3.055v.553h-1.244z"/>
        <path stroke="#FFF" stroke-width=".16" d="M47.482 10.166h-.567V6.223H45.67V5.67h3.055v.553h-1.244z"/>
        <path fill="#FFF" d="M51.668 9.21c.33.337.73.506 1.208.506.474 0 .878-.169 1.204-.505.329-.337.496-.769.496-1.293 0-.524-.167-.956-.496-1.292a1.615 1.615 0 0 0-1.204-.506c-.477 0-.878.17-1.208.506-.328.336-.495.768-.495 1.292s.167.956.495 1.293m2.835.377c-.438.454-.98.681-1.627.681-.65 0-1.193-.227-1.63-.681-.438-.454-.655-1.01-.655-1.67 0-.659.217-1.215.654-1.67.438-.454.98-.68 1.631-.68.643 0 1.186.226 1.624.685.44.457.658 1.01.658 1.665 0 .66-.218 1.216-.655 1.67"/>
        <path stroke="#FFF" stroke-width=".16" d="M51.668 9.21c.33.337.73.506 1.208.506.474 0 .878-.169 1.204-.505.329-.337.496-.769.496-1.293 0-.524-.167-.956-.496-1.292a1.615 1.615 0 0 0-1.204-.506c-.477 0-.878.17-1.208.506-.328.336-.495.768-.495 1.292s.167.956.495 1.293zm2.835.378c-.438.454-.98.681-1.627.681-.65 0-1.193-.227-1.63-.681-.438-.454-.655-1.01-.655-1.67 0-.659.217-1.215.654-1.67.438-.454.98-.68 1.631-.68.643 0 1.186.226 1.624.685.44.457.658 1.01.658 1.665 0 .66-.218 1.216-.655 1.67z"/>
        <path fill="#FFF" d="M55.96 10.166V5.67h.694l2.159 3.497h.025l-.025-.864V5.67h.57v4.496h-.595l-2.26-3.669h-.025l.025.868v2.801z"/>
        <path stroke="#FFF" stroke-width=".16" d="M55.96 10.166V5.67h.694l2.159 3.497h.025l-.025-.864V5.67h.57v4.496h-.595l-2.26-3.669h-.025l.025.868v2.801z"/>
        <path fill="#FFF" d="M79.179 22.916h1.384v-9.374H79.18v9.374zm12.448-5.997l-1.588 4.063h-.047l-1.641-4.063h-1.49l2.466 5.679-1.406 3.16h1.443l3.799-8.839h-1.536zm-7.839 4.931c-.452 0-1.081-.226-1.081-.793 0-.726.785-1.004 1.464-1.004.608 0 .893.136 1.263.315-.109.868-.846 1.482-1.646 1.482zm.167-5.136c-.998 0-2.036.446-2.462 1.435l1.225.52c.264-.52.749-.689 1.262-.689.716 0 1.442.436 1.454 1.205v.099a3.006 3.006 0 0 0-1.443-.363c-1.32 0-2.665.736-2.665 2.11 0 1.255 1.081 2.064 2.296 2.064.93 0 1.442-.424 1.764-.918h.048v.724h1.333v-3.595c0-1.662-1.225-2.592-2.812-2.592zm-8.537 1.347h-1.967v-3.215h1.967c1.031 0 1.62.867 1.62 1.607 0 .726-.589 1.608-1.62 1.608zm-.036-4.519H72.07v9.374h1.381v-3.551h1.931c1.534 0 3.038-1.124 3.038-2.912 0-1.787-1.508-2.91-3.038-2.91zM57.33 21.854c-.954 0-1.753-.809-1.753-1.922 0-1.124.799-1.944 1.753-1.944.94 0 1.682.82 1.682 1.944 0 1.113-.742 1.922-1.682 1.922zm1.584-4.412h-.047c-.31-.373-.904-.71-1.655-.71-1.578 0-3.02 1.402-3.02 3.2 0 1.787 1.442 3.178 3.02 3.178.751 0 1.344-.34 1.655-.724h.047v.457c0 1.22-.644 1.875-1.681 1.875-.846 0-1.37-.619-1.588-1.139l-1.204.509c.347.846 1.267 1.886 2.792 1.886 1.623 0 2.993-.967 2.993-3.321v-5.727h-1.312v.516zm2.267 5.474h1.385v-9.374H61.18v9.374zm3.424-3.094c-.036-1.23.943-1.86 1.645-1.86.55 0 1.016.279 1.171.677l-2.816 1.183zm4.294-1.062c-.26-.713-1.062-2.029-2.697-2.029-1.62 0-2.968 1.293-2.968 3.19 0 1.787 1.335 3.19 3.124 3.19 1.447 0 2.281-.894 2.625-1.414l-1.074-.725c-.358.53-.846.882-1.551.882-.7 0-1.203-.325-1.525-.966l4.212-1.765-.146-.363zm-33.547-1.05v1.355h3.196c-.094.757-.344 1.314-.727 1.702-.466.469-1.193.989-2.47.989-1.966 0-3.506-1.608-3.506-3.6s1.54-3.6 3.507-3.6c1.063 0 1.837.422 2.408.967l.943-.955c-.799-.772-1.861-1.366-3.351-1.366-2.697 0-4.964 2.223-4.964 4.954 0 2.732 2.267 4.954 4.964 4.954 1.457 0 2.552-.483 3.413-1.39.882-.894 1.157-2.15 1.157-3.164 0-.315-.026-.605-.072-.847h-4.498zm8.204 4.144c-.955 0-1.78-.797-1.78-1.933 0-1.15.825-1.933 1.78-1.933.954 0 1.775.783 1.775 1.933 0 1.136-.821 1.933-1.775 1.933zm0-5.123c-1.743 0-3.16 1.341-3.16 3.19 0 1.835 1.417 3.19 3.16 3.19 1.742 0 3.16-1.355 3.16-3.19 0-1.849-1.418-3.19-3.16-3.19zm6.894 5.123c-.954 0-1.775-.797-1.775-1.933 0-1.15.821-1.933 1.775-1.933.955 0 1.78.783 1.78 1.933 0 1.136-.825 1.933-1.78 1.933zm0-5.123c-1.739 0-3.16 1.341-3.16 3.19 0 1.835 1.421 3.19 3.16 3.19 1.743 0 3.164-1.355 3.164-3.19 0-1.849-1.42-3.19-3.164-3.19z"/>
        <g transform="translate(7.35 5.97)">
            <mask id="b" fill="#fff">
                <use xlink:href="#a"/>
            </mask>
            <path fill="#FFF" d="M.377.102C.16.332.034.692.034 1.156V17.74c0 .465.126.824.343 1.055l.054.05 9.176-9.289v-.22L.431.048.377.102z" mask="url(#b)"/>
        </g>
        <use fill="#FFF" transform="translate(16.867 12.144)" xlink:href="#c"/>
        <g transform="translate(7.71 15.354)">
            <mask id="e" fill="#fff">
                <use xlink:href="#d"/>
            </mask>
            <path fill="#FFF" d="M.016 9.412c.343.366.903.41 1.54.044l10.817-6.225L9.246.064.016 9.412z" mask="url(#e)"/>
        </g>
        <use fill="#FFF" transform="translate(7.71 5.724)" xlink:href="#f"/>
    </g>
</svg>
