<svg xmlns="http://www.w3.org/2000/svg" xmlns:xlink="http://www.w3.org/1999/xlink" width="24" height="24" viewBox="0 0 24 24">
    <defs>
        <path id="a" d="M13.667 9.667c0 2.006 1.303 4.166 4.166 4.166 2.864 0 4.167-2.16 4.167-4.166a.833.833 0 0 0-.155-.485l-4.16-5.822a.844.844 0 0 0-.357-.292.944.944 0 0 0-.346-.068H7.018a.827.827 0 0 0-.704.36L2.155 9.182c-.1.141-.155.311-.155.485 0 2.006 1.303 4.166 4.167 4.166 2.863 0 4.166-2.16 4.166-4.166a.821.821 0 0 0-.067-.329L8.264 4.667h2.903v14.166h-5a.833.833 0 1 0 0 1.667h11.666a.833.833 0 1 0 0-1.667h-5V4.667h2.903l-2.002 4.671a.821.821 0 0 0-.067.329zm-5.074 0H3.857l2.96-4.144 1.776 4.144zm8.59-4.144l2.96 4.144h-4.736l1.776-4.144z"/>
    </defs>
    <g fill="none" fill-rule="evenodd">
        <mask id="b" fill="#fff">
            <use xlink:href="#a"/>
        </mask>
        <use fill="#1B2031" fill-rule="nonzero" xlink:href="#a"/>
        <g fill="#FF9800" mask="url(#b)">
            <path d="M0 0h24v24H0z"/>
        </g>
    </g>
</svg>
