<svg xmlns="http://www.w3.org/2000/svg" xmlns:xlink="http://www.w3.org/1999/xlink" width="24" height="24" viewBox="0 0 24 24">
    <defs>
        <path id="a" d="M16.148 13.429c1.736 0 3.148 1.423 3.148 3.174 0 .587-.169 1.13-.446 1.603l1.233 1.243a.797.797 0 0 1 0 1.122.785.785 0 0 1-1.113 0l-1.233-1.243c-.468.28-1.006.45-1.589.45-1.736 0-3.148-1.424-3.148-3.175 0-1.75 1.412-3.174 3.148-3.174zM11.583 2c3.482 0 7.084 2.671 7.084 7.143 0 .836-.255 1.761-.655 2.707a4.661 4.661 0 0 0-1.706-.326c-2.605 0-4.723 2.136-4.723 4.762 0 1.187.436 2.271 1.152 3.107-.324.351-.548.582-.593.627a.784.784 0 0 1-1.117 0C10.759 19.748 4.5 13.34 4.5 9.143 4.5 4.67 8.101 2 11.583 2zm4.565 13.016c-.868 0-1.574.712-1.574 1.587 0 .876.706 1.587 1.574 1.587.868 0 1.574-.711 1.574-1.587 0-.875-.706-1.587-1.574-1.587zm-4.565-8.254a2.37 2.37 0 0 0-2.36 2.38 2.37 2.37 0 0 0 2.36 2.382 2.37 2.37 0 0 0 2.361-2.381 2.37 2.37 0 0 0-2.36-2.381z"/>
    </defs>
    <g fill="none" fill-rule="evenodd">
        <mask id="b" fill="#fff">
            <use xlink:href="#a"/>
        </mask>
        <use fill="#1B2031" fill-rule="nonzero" xlink:href="#a"/>
        <g fill="#FF9800" mask="url(#b)">
            <path d="M0 0h24v24H0z"/>
        </g>
    </g>
</svg>
