<svg xmlns="http://www.w3.org/2000/svg" xmlns:xlink="http://www.w3.org/1999/xlink" width="20" height="20" viewBox="0 0 20 20">
    <defs>
        <path id="a" d="M10.348 3.06H9.181v.584c0 .739 1.054.776 1.159.11l.008-.11V3.06zm5.516 1.167H3.667v12.94h12.197V4.227zM11.992 6.03c.323 0 .584.261.584.584V8.84a2.068 2.068 0 0 1-2.068 2.068h-.16v3.871a.583.583 0 1 1-1.166 0v-3.872l-.16.001a2.068 2.068 0 0 1-2.067-2.068V6.614a.583.583 0 0 1 1.166 0V8.84c0 .498.404.901.902.901h.159V6.614a.583.583 0 0 1 1.166 0v3.128h.16a.901.901 0 0 0 .901-.901V6.614c0-.323.261-.584.583-.584zM6.636 3.06H5.469v.584c0 .739 1.054.776 1.159.11l.008-.11V3.06zm7.416-1.754l.009.11-.001 1.644h-1.167V1.417c0-.74 1.054-.776 1.16-.111zM10.348 3.06h2.545v.584c0 .739 1.054.776 1.16.11l.008-.11-.001-.584h2.387c.322 0 .583.262.583.584V17.75a.583.583 0 0 1-.583.583H3.083a.583.583 0 0 1-.583-.583V3.644c0-.322.261-.583.583-.583H5.47V1.416c0-.74 1.054-.776 1.159-.111l.008.11V3.06h2.545V1.417c0-.74 1.054-.776 1.159-.111l.008.11V3.06z"/>
    </defs>
    <g fill="none" fill-rule="evenodd">
        <mask id="b" fill="#fff">
            <use xlink:href="#a"/>
        </mask>
        <use fill="#0C4FED" fill-rule="nonzero" xlink:href="#a"/>
        <g fill="#42236A" mask="url(#b)">
            <path d="M0 0h20v20H0z"/>
        </g>
    </g>
</svg>
