<svg xmlns="http://www.w3.org/2000/svg" xmlns:xlink="http://www.w3.org/1999/xlink" width="20" height="20" viewBox="0 0 20 20">
    <defs>
        <path id="a" d="M4.524 18.178a1.902 1.902 0 0 1-1.903-1.903v-6.39a.57.57 0 0 1 1.142 0v6.39c0 .42.34.761.76.761h2.892v-8.18h-5.82a.57.57 0 0 1-.571-.57V5.623a.57.57 0 0 1 .57-.57h2.884a2.168 2.168 0 0 1 1.91-3.196c1.262 0 2.243.716 2.967 1.864.082.13.158.263.23.398a4.94 4.94 0 0 1 .227-.398c.724-1.148 1.704-1.864 2.967-1.864a2.168 2.168 0 0 1 1.91 3.196h2.883a.57.57 0 0 1 .571.57v2.663a.57.57 0 0 1-.57.57h-5.821v8.18h2.891c.42 0 .761-.34.761-.76V9.883a.57.57 0 0 1 1.141 0v6.391c0 1.05-.851 1.903-1.902 1.903H4.524zm6.086-9.321H8.556v8.18h2.055l-.001-8.18zM7.415 6.193h-5.25v1.523l5.25-.001V6.193zm3.195 0H8.556v1.522h2.054V6.193zm6.392 0h-5.25v1.522h5.25V6.195zM6.388 2.999a1.027 1.027 0 1 0 0 2.055H8.77a5.534 5.534 0 0 0-.381-.723c-.535-.85-1.196-1.332-2.001-1.332zm6.391 0c-.805 0-1.466.483-2.001 1.332-.145.23-.273.474-.382.723h2.383a1.027 1.027 0 1 0 0-2.055z"/>
    </defs>
    <g fill="none" fill-rule="evenodd">
        <mask id="b" fill="#fff">
            <use xlink:href="#a"/>
        </mask>
        <use fill="#0C4FED" fill-rule="nonzero" xlink:href="#a"/>
        <g fill="#FFF" mask="url(#b)">
            <path d="M-.072 0h20v20h-20z"/>
        </g>
    </g>
</svg>
