<svg xmlns="http://www.w3.org/2000/svg" xmlns:xlink="http://www.w3.org/1999/xlink" width="20" height="20" viewBox="0 0 20 20">
    <defs>
        <path id="a" d="M4.844 9.063c.259 0 .468.21.468.468V10h.006a4.066 4.066 0 0 1 2.873 1.236l.157.17 1.683.001c.722.048 1.36.403 1.782.936h2.874c.855 0 1.48.216 1.892.592.274.251.405.518.444.729a.469.469 0 0 1-.21.483l-.074.037-6.715 2.728a2.485 2.485 0 0 1-1.859-.007l-.176-.08-2.677-1.359v.159c0 .259-.21.469-.468.469H2.969a.469.469 0 0 1-.469-.469V9.531c0-.259.21-.469.469-.469h1.875zm.468 1.874v3.477l3.099 1.574c.345.173.741.21 1.108.106l.155-.052 6.16-2.502c-.209-.14-.517-.233-.952-.254l-.194-.005h-2.413c.035.142.058.288.068.438a.469.469 0 0 1-.38.492l-.088.008H7.656a.469.469 0 0 1-.084-.93l.084-.008h3.634a1.533 1.533 0 0 0-1.149-.92L10 12.343H8.125a.469.469 0 0 1-.372-.184 3.128 3.128 0 0 0-2.237-1.213l-.204-.01zM4.375 10h-.938v5.156h.938V10.48 10zM10 2.5c1.036 0 1.875.84 1.875 1.875v.764l.227.078a6.094 6.094 0 0 1 3.974 5.251h.955c.26 0 .469.225.469.5 0 .246-.166.45-.384.493l-.085.008h-5.156c-.259 0-.469-.224-.469-.5 0-.246.166-.45.385-.492l.084-.008h3.26a5.157 5.157 0 0 0-9.324-2.54.469.469 0 1 1-.761-.546 6.086 6.086 0 0 1 3.075-2.244v-.764c0-1.036.84-1.875 1.875-1.875zm0 .938a.938.938 0 0 0-.938.937v.54a6.08 6.08 0 0 1 1.875 0v-.54A.937.937 0 0 0 10 3.437z"/>
    </defs>
    <g fill="none" fill-rule="evenodd">
        <mask id="b" fill="#fff">
            <use xlink:href="#a"/>
        </mask>
        <use fill="#42236A" fill-rule="nonzero" xlink:href="#a"/>
        <g fill="#42236A" mask="url(#b)">
            <path d="M0 0h20v20H0z"/>
        </g>
    </g>
</svg>
