<svg xmlns="http://www.w3.org/2000/svg" xmlns:xlink="http://www.w3.org/1999/xlink" width="20" height="20" viewBox="0 0 20 20">
    <defs>
        <path id="a" d="M11.667 1.042a3.403 3.403 0 0 1 3.402 3.402v1.042h3.264c.346 0 .625.28.625.625v11.111c0 .345-.28.625-.625.625H5a.625.625 0 0 1-.625-.625v-1.666a.625.625 0 1 1 1.25 0v1.041h12.083v-9.86H5.625v1.596a.625.625 0 1 1-1.25 0V6.111c0-.345.28-.625.625-.625h3.264V4.444a3.403 3.403 0 0 1 3.403-3.402zM7.222 12.708a.625.625 0 0 1 0 1.25H1.667a.625.625 0 1 1 0-1.25h5.555zm1.111-2.777a.625.625 0 0 1 0 1.25H2.778a.625.625 0 0 1 0-1.25h5.555zm3.334-7.64a2.153 2.153 0 0 0-2.153 2.153v1.042h4.305V4.444a2.153 2.153 0 0 0-2.152-2.152z"/>
    </defs>
    <g fill="none" fill-rule="evenodd">
        <mask id="b" fill="#fff">
            <use xlink:href="#a"/>
        </mask>
        <use fill="#FFF" fill-rule="nonzero" xlink:href="#a"/>
        <g fill="#FFF" mask="url(#b)">
            <path d="M0 0h20v20H0z"/>
        </g>
    </g>
</svg>
