<svg xmlns="http://www.w3.org/2000/svg" xmlns:xlink="http://www.w3.org/1999/xlink" width="20" height="20" viewBox="0 0 20 20">
    <defs>
        <path id="a" d="M6.548 2.007L11.1 5.042l1.929-1.928a2.728 2.728 0 1 1 3.858 3.858L14.96 8.9l3.034 4.552a2.03 2.03 0 0 1-.254 2.56l-1.662 1.662a.63.63 0 0 1-.969-.096l-3.531-5.297-1.53 1.53-.109.087-2.16 1.367.182 2.313c.05.648-.733 1.008-1.192.549l-1.354-1.365-.96.608c-1.187.712-2.536-.637-1.816-1.837l.6-.947-1.365-1.354c-.41-.411-.166-1.08.354-1.182l.095-.011h.1l2.313.18 1.367-2.157.087-.109 1.53-1.53-5.297-3.531a.63.63 0 0 1-.096-.969L3.99 2.261a2.029 2.029 0 0 1 2.56-.254zm7.371 1.997l-6.79 6.79-3.42 5.4c-.037.063.034.134.084.104l5.413-3.427 4.506-4.505a.628.628 0 0 1 .01-.01l2.275-2.274a1.469 1.469 0 1 0-2.078-2.078zm.13 5.804l-1.565 1.565 3.246 4.867 1.118-1.118a.77.77 0 0 0 .097-.972L14.05 9.808zM4.88 3.15l-1.12 1.12 4.868 3.244 1.565-1.565L5.85 3.055a.77.77 0 0 0-.971.096z"/>
    </defs>
    <g fill="none" fill-rule="evenodd">
        <mask id="b" fill="#fff">
            <use xlink:href="#a"/>
        </mask>
        <use fill="#0C4FED" fill-rule="nonzero" xlink:href="#a"/>
        <g fill="#42236A" mask="url(#b)">
            <path d="M0 0h20v20H0z"/>
        </g>
    </g>
</svg>
