<svg xmlns="http://www.w3.org/2000/svg" xmlns:xlink="http://www.w3.org/1999/xlink" width="20" height="20" viewBox="0 0 20 20">
    <defs>
        <path id="a" d="M10.294 1.252a.398.398 0 0 1 .354.15c2.326 2.992 5.847 7.413 5.847 11.382 0 3.365-2.778 5.965-6.164 5.965-3.386 0-6.164-2.6-6.164-5.965 0-3.969 3.52-8.39 5.847-11.383a.398.398 0 0 1 .28-.149zm.037 1.056C8.027 5.286 4.962 9.452 4.962 12.784c0 2.93 2.386 5.17 5.37 5.17 2.982 0 5.368-2.24 5.368-5.17 0-3.332-3.065-7.498-5.369-10.476zm.1 4.516c.074.02.125.085.125.164v2.995c0 .019.014.033.032.033h2.203a.17.17 0 0 1 .15.248l-2.733 5.253a.167.167 0 0 1-.187.087.169.169 0 0 1-.132-.16l-.095-3.327c0-.017-.015-.03-.032-.03H7.519A.166.166 0 0 1 7.372 12a.168.168 0 0 1 0-.17l2.867-4.928a.169.169 0 0 1 .191-.08zm-.044.13c-.01 0-.019.003-.027.017L7.491 11.9a.034.034 0 0 0 0 .032.031.031 0 0 0 .028.016h2.243c.093 0 .167.073.169.164l.094 3.327c0 .022.016.028.025.031.01.002.027.003.036-.017l2.733-5.253a.03.03 0 0 0-.002-.033.031.031 0 0 0-.028-.015H10.59a.17.17 0 0 1-.17-.17V6.989a.03.03 0 0 0-.022-.03c-.005-.002-.008-.004-.011-.004z"/>
    </defs>
    <g fill="none" fill-rule="evenodd">
        <mask id="b" fill="#fff">
            <use xlink:href="#a"/>
        </mask>
        <use fill="#42236A" fill-rule="nonzero" stroke="#42236A" stroke-width=".5" xlink:href="#a"/>
        <g fill="#42236A" mask="url(#b)">
            <path d="M0 0h20v20H0z"/>
        </g>
    </g>
</svg>
