<svg width="30" height="30" viewBox="0 0 30 30" fill="none" xmlns="http://www.w3.org/2000/svg">
<path fill-rule="evenodd" clip-rule="evenodd" d="M15.1003 5.25C10.5542 5.25 6.47386 7.11587 3.56062 10.0291L2.85352 10.7362L4.26773 12.1504L4.97484 11.4433C7.53259 8.88557 11.1117 7.25 15.1003 7.25C19.0889 7.25 22.668 8.88557 25.2258 11.4433L25.9329 12.1504L27.3471 10.7362L26.64 10.0291C23.7267 7.11587 19.6464 5.25 15.1003 5.25ZM8.18099 14.6008C9.98773 12.9145 12.414 11.8152 15.1002 11.8152C17.7865 11.8152 20.2128 12.9145 22.0195 14.6008L22.7506 15.2831L21.3859 16.7452L20.6549 16.0629C19.179 14.6854 17.2284 13.8152 15.1002 13.8152C12.9721 13.8152 11.0215 14.6854 9.54563 16.0629L8.81458 16.7452L7.44994 15.2831L8.18099 14.6008ZM15.1001 20.3804C14.4437 20.3804 13.9117 20.9124 13.9117 21.5688C13.9117 22.2251 14.4437 22.7572 15.1001 22.7572C15.7564 22.7572 16.2885 22.2251 16.2885 21.5688C16.2885 20.9124 15.7564 20.3804 15.1001 20.3804ZM11.9117 21.5688C11.9117 19.8079 13.3392 18.3804 15.1001 18.3804C16.861 18.3804 18.2885 19.8079 18.2885 21.5688C18.2885 23.3297 16.861 24.7572 15.1001 24.7572C13.3392 24.7572 11.9117 23.3297 11.9117 21.5688Z" fill="#88E4D2"/>
</svg>
