<svg width="30" height="30" viewBox="0 0 30 30" fill="none" xmlns="http://www.w3.org/2000/svg">
<path d="M26.4582 8.75008H17.2239L21.0083 4.20843C21.0958 4.1033 21.1618 3.98196 21.2024 3.85134C21.2431 3.72071 21.2576 3.58335 21.2452 3.44711C21.2328 3.31087 21.1936 3.17842 21.13 3.0573C21.0664 2.93619 20.9795 2.82879 20.8744 2.74125C20.7693 2.6537 20.6479 2.58771 20.5173 2.54706C20.3867 2.50641 20.2493 2.49188 20.1131 2.50431C19.9769 2.51674 19.8444 2.55588 19.7233 2.6195C19.6022 2.68312 19.4948 2.76997 19.4072 2.8751L15.0427 8.11258L12.7083 5.00009C12.6262 4.89066 12.5234 4.79846 12.4057 4.72876C12.288 4.65907 12.1577 4.61324 12.0223 4.59389C11.8869 4.57455 11.749 4.58207 11.6164 4.61602C11.4839 4.64996 11.3594 4.70968 11.25 4.79176C11.1405 4.87383 11.0483 4.97666 10.9786 5.09437C10.9089 5.21207 10.8631 5.34236 10.8438 5.47777C10.8244 5.61319 10.8319 5.7511 10.8659 5.88361C10.8998 6.01612 10.9596 6.14065 11.0416 6.25009L12.9166 8.75008H3.54166C3.2654 8.75008 3.00045 8.85982 2.8051 9.05517C2.60975 9.25052 2.5 9.51547 2.5 9.79174V26.4583C2.5 26.7346 2.60975 26.9996 2.8051 27.1949C3.00045 27.3903 3.2654 27.5 3.54166 27.5H26.4582C26.7345 27.5 26.9995 27.3903 27.1948 27.1949C27.3902 26.9996 27.4999 26.7346 27.4999 26.4583V9.79174C27.4999 9.51547 27.3902 9.25052 27.1948 9.05517C26.9995 8.85982 26.7345 8.75008 26.4582 8.75008ZM19.1666 23.3334H6.66665V12.9167H19.1666V23.3334ZM23.3333 23.3334H21.2499V18.125H23.3333V23.3334ZM23.3333 16.0417H21.2499V12.9167H23.3333V16.0417Z" fill="#FF8ADE"/>
</svg>
