<svg width="30" height="30" viewBox="0 0 30 30" fill="none" xmlns="http://www.w3.org/2000/svg">
<path fill-rule="evenodd" clip-rule="evenodd" d="M14.4565 2.5H16.6304V5.76087H14.4565V2.5ZM7.08792 5.55109L5.55096 7.08805L7.85748 9.39457L9.39444 7.8587L7.08792 5.55109ZM5.76087 14.4565H2.5V16.6304H5.76087V14.4565ZM23.9967 5.55217L21.6924 7.85761L23.2293 9.39456L25.5348 7.08913L23.9967 5.55217ZM25.3261 14.4565H28.587V16.6304H25.3261V14.4565ZM7.93478 15.5435C7.93478 11.3489 11.3478 7.93478 15.5435 7.93478C19.7391 7.93478 23.1522 11.3489 23.1522 15.5435C23.1497 16.982 22.7401 18.3905 21.9707 19.6059C21.2013 20.8214 20.1035 21.7943 18.8043 22.412V27.5H12.2826V22.412C10.9835 21.7942 9.88581 20.8213 9.11641 19.6058C8.34702 18.3904 7.93735 16.982 7.93478 15.5435Z" fill="#F6DA00"/>
</svg>
