<svg width="30" height="30" viewBox="0 0 30 30" fill="none" xmlns="http://www.w3.org/2000/svg">
<path fill-rule="evenodd" clip-rule="evenodd" d="M7.70833 2.5H23.5417C24.5915 2.5 25.5983 2.93517 26.3406 3.70978C27.083 4.48438 27.5 5.53498 27.5 6.63043V8.69565C27.5 8.96952 27.3957 9.23216 27.2102 9.42582C27.0246 9.61947 26.7729 9.72826 26.5104 9.72826H21.5625C21.3 9.72826 21.0483 9.61947 20.8628 9.42582C20.6772 9.23216 20.5729 8.96952 20.5729 8.69565V6.63043H10.6771V8.69565C10.6771 8.96952 10.5728 9.23216 10.3872 9.42582C10.2017 9.61947 9.94995 9.72826 9.6875 9.72826H4.73958C4.47713 9.72826 4.22543 9.61947 4.03984 9.42582C3.85426 9.23216 3.75 8.96952 3.75 8.69565V6.63043C3.75 5.53498 4.16704 4.48438 4.90937 3.70978C5.6517 2.93517 6.65852 2.5 7.70833 2.5ZM20.3364 12.1551L26.2739 19.3833C26.428 19.5699 26.5126 19.8082 26.5124 20.0545V25.2176C26.5124 25.4914 26.4081 25.7541 26.2225 25.9477C26.0369 26.1414 25.7852 26.2502 25.5228 26.2502H5.7311C5.46865 26.2502 5.21694 26.1414 5.03136 25.9477C4.84578 25.7541 4.74152 25.4914 4.74152 25.2176V20.0545C4.74125 19.8082 4.8259 19.5699 4.98001 19.3833L10.9175 12.1551C11.0103 12.0419 11.1255 11.9509 11.2551 11.8885C11.3848 11.8262 11.5258 11.7938 11.6686 11.7937H19.5853C19.728 11.7938 19.8691 11.8262 19.9987 11.8885C20.1284 11.9509 20.2436 12.0419 20.3364 12.1551ZM13.9776 21.5977C14.4658 21.9381 15.0398 22.1197 15.6269 22.1197C16.4143 22.1197 17.1694 21.7934 17.7262 21.2124C18.2829 20.6315 18.5957 19.8435 18.5957 19.0219C18.5957 18.4092 18.4216 17.8103 18.0954 17.3009C17.7691 16.7914 17.3055 16.3944 16.763 16.1599C16.2206 15.9254 15.6236 15.8641 15.0478 15.9836C14.4719 16.1031 13.9429 16.3982 13.5277 16.8314C13.1125 17.2647 12.8298 17.8166 12.7152 18.4176C12.6007 19.0185 12.6595 19.6413 12.8842 20.2074C13.1089 20.7735 13.4894 21.2573 13.9776 21.5977Z" fill="#F38598"/>
</svg>
