<svg width="30" height="30" viewBox="0 0 30 30" fill="none" xmlns="http://www.w3.org/2000/svg">
<path fill-rule="evenodd" clip-rule="evenodd" d="M21.25 2.5H8.75C7.02708 2.5 5.625 3.90208 5.625 5.625V24.375C5.625 26.0979 7.02708 27.5 8.75 27.5H21.25C22.9729 27.5 24.375 26.0979 24.375 24.375V5.625C24.375 3.90208 22.9729 2.5 21.25 2.5ZM15 25.4167C14.425 25.4167 13.9583 24.95 13.9583 24.375C13.9583 23.8 14.425 23.3333 15 23.3333C15.575 23.3333 16.0417 23.8 16.0417 24.375C16.0417 24.95 15.575 25.4167 15 25.4167ZM22.2917 20.2083C22.2917 20.7833 21.825 21.25 21.25 21.25H8.75C8.175 21.25 7.70833 20.7833 7.70833 20.2083V6.66667C7.70833 6.09167 8.175 5.625 8.75 5.625H21.25C21.825 5.625 22.2917 6.09167 22.2917 6.66667V20.2083Z" fill="#FEB2A8"/>
</svg>
