<svg width="30" height="30" viewBox="0 0 30 30" fill="none" xmlns="http://www.w3.org/2000/svg">
<path d="M15.74 2.81282C15.5404 2.62326 15.2757 2.51758 15.0004 2.51758C14.7252 2.51758 14.4604 2.62326 14.2609 2.81282C13.9088 3.16386 5.62545 11.5743 5.62545 17.0837C5.61334 18.3182 5.84756 19.5427 6.31441 20.6856C6.78126 21.8285 7.47136 22.8668 8.34433 23.7398C9.2173 24.6127 10.2556 25.3028 11.3985 25.7697C12.5414 26.2365 13.7659 26.4708 15.0004 26.4587C16.235 26.4708 17.4595 26.2365 18.6024 25.7697C19.7453 25.3028 20.7836 24.6127 21.6566 23.7398C22.5295 22.8668 23.2196 21.8285 23.6865 20.6856C24.1533 19.5427 24.3876 18.3182 24.3754 17.0837C24.3754 11.5743 16.0921 3.16386 15.74 2.81282ZM16.0421 21.2503H15.0004C14.4507 21.2595 13.9048 21.158 13.3952 20.9518C12.8855 20.7457 12.4225 20.4391 12.0338 20.0503C11.645 19.6616 11.3384 19.1986 11.1323 18.6889C10.9261 18.1793 10.8246 17.6334 10.8338 17.0837V16.042H12.9171V17.0837C12.9171 17.6362 13.1366 18.1661 13.5273 18.5568C13.918 18.9475 14.4479 19.167 15.0004 19.167H16.0421V21.2503Z" fill="#93BFFF"/>
</svg>
