<svg xmlns="http://www.w3.org/2000/svg" width="52" height="65" viewBox="0 0 52 65">
    <path fill="#e2d8ee" fill-rule="nonzero" d="M28.308 30.192a3.25 3.25 0 0 0-1.073-.682 3.25 3.25 0 0 0-2.47 0 3.25 3.25 0 0 0-1.073.682l-6.5 6.5a3.263 3.263 0 1 0 4.616 4.615l.942-.974v8.417a3.25 3.25 0 0 0 6.5 0v-8.417l.942.974a3.25 3.25 0 0 0 4.615 0 3.25 3.25 0 0 0 0-4.614l-6.5-6.5zM52 22.555a4.257 4.257 0 0 0-.195-.878v-.292a3.478 3.478 0 0 0-.617-.91l-19.5-19.5a3.477 3.477 0 0 0-.91-.618h-.325A3.575 3.575 0 0 0 29.445 0H9.75C4.365 0 0 4.365 0 9.75v45.5C0 60.635 4.365 65 9.75 65h32.5c5.385 0 9.75-4.365 9.75-9.75V22.555zM32.5 11.082l8.417 8.418H35.75a3.25 3.25 0 0 1-3.25-3.25v-5.168zm13 44.168a3.25 3.25 0 0 1-3.25 3.25H9.75a3.25 3.25 0 0 1-3.25-3.25V9.75A3.25 3.25 0 0 1 9.75 6.5H26v9.75c0 5.385 4.365 9.75 9.75 9.75h9.75v29.25z"/>
</svg>
