<svg xmlns="http://www.w3.org/2000/svg" width="24" height="24" fill="none" viewBox="0 0 24 24">
    <path fill="#ff3b30" fill-rule="evenodd" d="M17 3.25C17 2.5 16.5 2 15.75 2h-7.5C7.5 2 7 2.5 7 3.25v2.5H2v2.5h20v-2.5h-5v-2.5zm-2.5 2.5h-5V4.5h5v1.25zM4.5 19.5v-10h15v10c0 1.375-1.125 2.5-2.5 2.5H7a2.507 2.507 0 0 1-2.5-2.5z" clip-rule="evenodd"/>
    <mask id="a" width="20" height="20" x="2" y="2" maskUnits="userSpaceOnUse">
        <path fill="#fff" fill-rule="evenodd" d="M17 3.25C17 2.5 16.5 2 15.75 2h-7.5C7.5 2 7 2.5 7 3.25v2.5H2v2.5h20v-2.5h-5v-2.5zm-2.5 2.5h-5V4.5h5v1.25zM4.5 19.5v-10h15v10c0 1.375-1.125 2.5-2.5 2.5H7a2.507 2.507 0 0 1-2.5-2.5z" clip-rule="evenodd"/>
    </mask>
</svg>
