<svg width="16" height="16" viewBox="0 0 16 16" fill="none" xmlns="http://www.w3.org/2000/svg">
<path fill-rule="evenodd" clip-rule="evenodd" d="M6.6711 0.5C3.26289 0.5 0.5 3.26289 0.5 6.6711C0.5 10.0793 3.26289 12.8422 6.6711 12.8422C8.06636 12.8422 9.35417 12.3788 10.3879 11.5977L14.0396 15.2494C14.3737 15.5835 14.9153 15.5835 15.2494 15.2494C15.5835 14.9153 15.5835 14.3737 15.2494 14.0396L11.5977 10.3879C12.3788 9.35417 12.8422 8.06636 12.8422 6.6711C12.8422 3.26289 10.0793 0.5 6.6711 0.5ZM2.21096 6.6711C2.21096 4.20783 4.20783 2.21096 6.6711 2.21096C9.13436 2.21096 11.1312 4.20783 11.1312 6.6711C11.1312 7.89057 10.6423 8.99515 9.84893 9.80066C9.84059 9.80836 9.83239 9.81625 9.82432 9.82432C9.81625 9.83239 9.80836 9.84059 9.80066 9.84893C8.99515 10.6423 7.89057 11.1312 6.6711 11.1312C4.20783 11.1312 2.21096 9.13436 2.21096 6.6711Z" fill="#AD8AD8"/>
</svg>
