<svg width="24" height="24" viewBox="0 0 24 24" fill="none" xmlns="http://www.w3.org/2000/svg">
<path fill-rule="evenodd" clip-rule="evenodd" d="M2.83323 5.33333H15.3332C15.7941 5.33333 16.1666 4.96 16.1666 4.5C16.1666 4.04 15.7941 3.66666 15.3332 3.66666H2.83323C2.37239 3.66666 1.99989 4.04 1.99989 4.5C1.99989 4.96 2.37239 5.33333 2.83323 5.33333ZM2.83323 10.3333H8.66656C9.12656 10.3333 9.49989 9.96 9.49989 9.5C9.49989 9.04 9.12656 8.66666 8.66656 8.66666H2.83323C2.37239 8.66666 1.99989 9.04 1.99989 9.5C1.99989 9.96 2.37239 10.3333 2.83323 10.3333ZM2.83323 15.3333H8.66656C9.12656 15.3333 9.49989 14.96 9.49989 14.5C9.49989 14.04 9.12656 13.6667 8.66656 13.6667H2.83323C2.37239 13.6667 1.99989 14.04 1.99989 14.5C1.99989 14.96 2.37239 15.3333 2.83323 15.3333ZM2.83323 18.6667H15.3332C15.7941 18.6667 16.1666 19.04 16.1666 19.5C16.1666 19.96 15.7941 20.3333 15.3332 20.3333H2.83323C2.37239 20.3333 1.99989 19.96 1.99989 19.5C1.99989 19.04 2.37239 18.6667 2.83323 18.6667ZM21.7557 17.2442L18.8057 14.2942C19.2424 13.635 19.4999 12.8475 19.4999 12C19.4999 9.7025 17.6307 7.83333 15.3332 7.83333C13.0357 7.83333 11.1666 9.7025 11.1666 12C11.1666 14.2975 13.0357 16.1667 15.3332 16.1667C16.1807 16.1667 16.9682 15.9092 17.6274 15.4725L20.5774 18.4225C20.7399 18.585 20.9532 18.6667 21.1666 18.6667C21.3799 18.6667 21.5932 18.585 21.7557 18.4225C22.0816 18.0967 22.0816 17.57 21.7557 17.2442Z" fill="#AD8AD8"/>
</svg>
