<svg width="41" height="21" viewBox="0 0 41 21" fill="none" xmlns="http://www.w3.org/2000/svg">
<rect width="41" height="21" rx="10.5" fill="#FF3B30"/>
<path d="M12.7891 6.46875L15.25 13.0078L17.7051 6.46875H19.6211V15H18.1445V12.1875L18.291 8.42578L15.7715 15H14.7109L12.1973 8.43164L12.3438 12.1875V15H10.8672V6.46875H12.7891ZM20.9746 11.7715C20.9746 11.1426 21.0957 10.582 21.3379 10.0898C21.584 9.59375 21.9297 9.21289 22.375 8.94727C22.8203 8.67773 23.332 8.54297 23.9102 8.54297C24.7891 8.54297 25.498 8.83398 26.0371 9.41602C26.2441 9.3418 26.3945 9.20117 26.4883 8.99414C26.582 8.78711 26.6289 8.46094 26.6289 8.01562H27.6074C27.6074 8.53906 27.5215 8.97656 27.3496 9.32812C27.1777 9.67578 26.8906 9.92188 26.4883 10.0664C26.7344 10.5547 26.8613 11.1074 26.8691 11.7246V11.8945C26.8691 12.5195 26.748 13.0781 26.5059 13.5703C26.2676 14.0625 25.9219 14.4434 25.4688 14.7129C25.0195 14.9824 24.5039 15.1172 23.9219 15.1172C23.0352 15.1172 22.3223 14.8223 21.7832 14.2324C21.2441 13.6426 20.9746 12.8457 20.9746 11.8418V11.7715ZM22.3926 11.8945C22.3926 12.5469 22.5273 13.0586 22.7969 13.4297C23.0664 13.7969 23.4414 13.9805 23.9219 13.9805C24.4023 13.9805 24.7754 13.793 25.041 13.418C25.3105 13.043 25.4453 12.4941 25.4453 11.7715C25.4453 11.1191 25.3066 10.6094 25.0293 10.2422C24.7559 9.87109 24.3828 9.68555 23.9102 9.68555C23.4453 9.68555 23.0762 9.87109 22.8027 10.2422C22.5293 10.6094 22.3926 11.1602 22.3926 11.8945ZM24.3262 6H25.9492L24.3262 7.77539H23.1836L24.3262 6ZM29.6816 15H28.2578V8.66016H29.6816V15ZM28.1699 7.01367C28.1699 6.79492 28.2383 6.61328 28.375 6.46875C28.5156 6.32422 28.7148 6.25195 28.9727 6.25195C29.2305 6.25195 29.4297 6.32422 29.5703 6.46875C29.7109 6.61328 29.7812 6.79492 29.7812 7.01367C29.7812 7.22852 29.7109 7.4082 29.5703 7.55273C29.4297 7.69336 29.2305 7.76367 28.9727 7.76367C28.7148 7.76367 28.5156 7.69336 28.375 7.55273C28.2383 7.4082 28.1699 7.22852 28.1699 7.01367Z" fill="white"/>
</svg>
