<svg xmlns="http://www.w3.org/2000/svg" width="24" height="24" fill="none" viewBox="0 0 24 24">
    <path fill="#ff9800" fill-rule="evenodd" d="M1.25 12c0 5.937 4.813 10.75 10.75 10.75S22.75 17.937 22.75 12 17.937 1.25 12 1.25 1.25 6.063 1.25 12zm10.854-5C10.12 7 9.062 8.176 9 9.748h1.415c.062-.875.67-1.429 1.613-1.429.937 0 1.545.547 1.545 1.3 0 .69-.294 1.08-1.12 1.578-.937.56-1.354 1.176-1.32 2.16l.007.52h1.415v-.41c0-.69.253-1.053 1.135-1.572.902-.54 1.435-1.286 1.435-2.338C15.125 8.073 13.908 7 12.104 7zm-1.231 9.064c0 .622.43 1.04 1.06 1.04.629 0 1.052-.418 1.052-1.04 0-.635-.423-1.052-1.052-1.052-.63 0-1.06.417-1.06 1.052z" clip-rule="evenodd"/>
    <mask id="a" width="22" height="22" x="1" y="1" maskUnits="userSpaceOnUse">
        <path fill="#fff" fill-rule="evenodd" d="M1.25 12c0 5.937 4.813 10.75 10.75 10.75S22.75 17.937 22.75 12 17.937 1.25 12 1.25 1.25 6.063 1.25 12zm10.854-5C10.12 7 9.062 8.176 9 9.748h1.415c.062-.875.67-1.429 1.613-1.429.937 0 1.545.547 1.545 1.3 0 .69-.294 1.08-1.12 1.578-.937.56-1.354 1.176-1.32 2.16l.007.52h1.415v-.41c0-.69.253-1.053 1.135-1.572.902-.54 1.435-1.286 1.435-2.338C15.125 8.073 13.908 7 12.104 7zm-1.231 9.064c0 .622.43 1.04 1.06 1.04.629 0 1.052-.418 1.052-1.04 0-.635-.423-1.052-1.052-1.052-.63 0-1.06.417-1.06 1.052z" clip-rule="evenodd"/>
    </mask>
</svg>
