<svg xmlns="http://www.w3.org/2000/svg" width="100" height="29" viewBox="0 0 100 29">
    <g fill="none" fill-rule="evenodd">
        <path fill="#42236A" d="M99.963 26.067a2.885 2.885 0 0 1-2.878 2.894H2.882A2.888 2.888 0 0 1 0 26.067V2.99A2.892 2.892 0 0 1 2.882.09h94.202c1.593 0 2.88 1.3 2.88 2.898v23.078z"/>
        <path fill="#FFF" d="M21.952 14.367c-.022-2.435 1.981-3.62 2.073-3.675-1.134-1.665-2.893-1.892-3.51-1.91-1.478-.157-2.91.89-3.662.89-.768 0-1.926-.875-3.175-.85-1.607.026-3.11.962-3.934 2.416-1.701 2.964-.433 7.32 1.198 9.716.815 1.174 1.768 2.484 3.015 2.437 1.22-.05 1.675-.782 3.148-.782 1.459 0 1.887.782 3.158.753 1.31-.02 2.134-1.179 2.921-2.363.942-1.344 1.32-2.67 1.336-2.737-.03-.01-2.542-.976-2.568-3.895M19.55 7.206c.656-.826 1.105-1.95.98-3.09-.95.042-2.138.661-2.822 1.469-.605.712-1.145 1.878-1.006 2.975 1.067.08 2.163-.541 2.847-1.354M36.703 19.03l-.845-2.626c-.089-.268-.257-.9-.503-1.894h-.03c-.1.428-.258 1.06-.475 1.894l-.83 2.626h2.683zm2.92 4.193H37.92l-.934-2.954h-3.247l-.89 2.954h-1.66l3.218-10.056h1.986l3.232 10.056zM46.25 19.567c0-.705-.157-1.287-.474-1.746-.346-.477-.811-.715-1.394-.715-.395 0-.754.133-1.074.395-.322.264-.532.61-.63 1.037-.05.2-.074.362-.074.49v1.21c0 .527.16.972.482 1.336.32.363.738.545 1.252.545.603 0 1.072-.235 1.408-.701.336-.468.504-1.084.504-1.85m1.631-.06c0 1.234-.333 2.208-.999 2.924-.596.637-1.337.955-2.22.955-.955 0-1.641-.342-2.058-1.028v3.804h-1.6v-7.808c0-.774-.02-1.568-.06-2.383h1.408l.09 1.15h.03c.533-.866 1.343-1.3 2.43-1.3.85 0 1.56.338 2.128 1.015.566.677.851 1.568.851 2.672M54.536 19.567c0-.705-.158-1.287-.475-1.746-.346-.477-.81-.715-1.392-.715-.395 0-.754.133-1.076.395-.321.264-.53.61-.63 1.037a2.17 2.17 0 0 0-.074.49v1.21c0 .527.161.972.48 1.336.322.362.74.545 1.255.545.603 0 1.073-.235 1.408-.701.336-.468.504-1.084.504-1.85m1.632-.06c0 1.234-.333 2.208-.999 2.924-.597.637-1.337.955-2.222.955-.954 0-1.64-.342-2.057-1.028v3.804h-1.6v-7.808c0-.774-.02-1.568-.06-2.383h1.408l.09 1.15h.03c.532-.866 1.343-1.3 2.43-1.3.85 0 1.56.338 2.128 1.015.566.677.852 1.568.852 2.672M65.433 20.402c0 .856-.298 1.552-.889 2.09-.65.586-1.558.88-2.721.88-1.075 0-1.937-.209-2.588-.627l.37-1.342a4.432 4.432 0 0 0 2.313.627c.604 0 1.073-.138 1.408-.41.335-.274.505-.64.505-1.096 0-.409-.14-.751-.416-1.03-.277-.278-.735-.537-1.378-.775-1.75-.657-2.625-1.617-2.625-2.88 0-.826.31-1.501.926-2.03.617-.527 1.436-.79 2.454-.79.91 0 1.667.159 2.268.477l-.402 1.313c-.566-.308-1.205-.462-1.92-.462-.564 0-1.007.14-1.324.418a1.2 1.2 0 0 0-.401.911c0 .397.153.726.46.985.266.238.75.497 1.452.775.86.349 1.492.755 1.897 1.222.408.467.61 1.05.61 1.744M70.738 17.181h-1.764v3.52c0 .896.31 1.342.934 1.342.286 0 .523-.024.711-.074l.044 1.223c-.315.119-.73.178-1.245.178-.632 0-1.126-.194-1.482-.582-.355-.389-.534-1.04-.534-1.955v-3.655H66.35V15.97h1.05v-1.327l1.573-.478v1.805h1.764v1.212zM77.024 19.575c0-.664-.143-1.234-.429-1.71-.335-.576-.816-.864-1.438-.864-.641 0-1.133.288-1.468.863-.287.477-.43 1.057-.43 1.741 0 .665.143 1.236.43 1.712.346.575.829.863 1.454.863.612 0 1.092-.294 1.439-.878.294-.488.442-1.061.442-1.727m1.66-.037c0 1.115-.317 2.03-.95 2.745-.661.737-1.541 1.104-2.638 1.104-1.059 0-1.9-.353-2.528-1.058-.628-.706-.941-1.596-.941-2.67 0-1.124.324-2.044.97-2.76.648-.716 1.52-1.074 2.618-1.074 1.057 0 1.906.354 2.549 1.06.614.684.92 1.568.92 2.653M83.889 17.389a2.768 2.768 0 0 0-.505-.045c-.563 0-.998.214-1.305.643-.265.377-.4.855-.4 1.432v3.804h-1.6v-4.967c0-.835-.016-1.597-.046-2.283h1.394l.058 1.387h.045c.17-.476.435-.861.8-1.149.357-.26.742-.388 1.157-.388.148 0 .282.01.4.03l.002 1.536zM89.521 18.837c.012-.479-.094-.89-.31-1.239-.278-.449-.704-.672-1.275-.672-.524 0-.95.218-1.275.656a2.417 2.417 0 0 0-.473 1.253l3.333.002zm1.527.418c0 .288-.02.531-.06.73h-4.801c.018.717.25 1.265.697 1.643.404.337.928.506 1.57.506.711 0 1.36-.113 1.943-.342l.251 1.117c-.682.3-1.486.449-2.415.449-1.117 0-1.994-.331-2.632-.992-.637-.661-.956-1.55-.956-2.663 0-1.092.296-2.003.89-2.729.622-.775 1.462-1.163 2.52-1.163 1.037 0 1.824.388 2.357 1.163.423.614.636 1.376.636 2.28zM42.004 5.932c.925 0 1.392.49 1.392 1.474v1.312c0 .36.015.639.051.851h-.708l-.058-.41h-.022c-.24.33-.59.49-1.034.49-.634 0-1.086-.447-1.086-1.049 0-.879.758-1.334 2.07-1.334V7.2c0-.469-.249-.704-.737-.704-.35 0-.656.089-.925.265l-.16-.521c.329-.206.736-.308 1.217-.308zm8.346-.001c.925 0 1.392.491 1.392 1.474v1.313c0 .36.016.638.05.85h-.706l-.058-.41h-.022c-.24.33-.59.491-1.035.491-.633 0-1.085-.447-1.085-1.049 0-.879.757-1.334 2.069-1.334V7.2c0-.469-.248-.704-.736-.704-.35 0-.656.089-.925.265l-.16-.522c.327-.205.735-.308 1.216-.308zm3.552-1.561v2.156h.015c.234-.396.612-.594 1.13-.594.853 0 1.45.734 1.45 1.804 0 1.106-.664 1.913-1.567 1.913-.502 0-.873-.213-1.113-.63H53.8l-.045.55h-.67c.021-.286.029-.61.029-.961V4.37h.787zm7.382 1.554c.904 0 1.473.675 1.473 1.694.003.14-.004.264-.027.36h-2.362c.016.674.459 1.055 1.115 1.055.35 0 .67-.06.955-.169l.122.55c-.335.147-.728.22-1.187.22-1.108 0-1.764-.704-1.764-1.796 0-1.093.672-1.914 1.675-1.914zM34.342 4.626l1.59 4.943h-.84l-.458-1.452h-1.596l-.437 1.452h-.816l1.58-4.943h.977zm2.985 1.379l.605 1.885c.102.315.19.615.255.9h.021c.059-.255.146-.556.255-.9l.598-1.885h.824l-1.341 3.563h-.765l-1.297-3.563h.845zm8.265 0V9.57h-.818V6.005h.818zm2.15-1.635v5.199h-.787v-5.2h.787zm10.705 0v5.199h-.786v-5.2h.786zM42.63 7.794c-.875 0-1.312.213-1.312.718 0 .374.226.557.54.557.4 0 .772-.308.772-.725v-.55zm8.347 0c-.875 0-1.312.213-1.312.718 0 .374.226.557.539.557.4 0 .773-.308.773-.725v-.55zm3.793-1.24c-.452 0-.867.396-.867.946v.624c0 .49.372.894.854.894.59 0 .94-.483.94-1.253 0-.719-.366-1.21-.927-1.21zM33.833 5.286h-.015c-.051.213-.124.521-.234.931l-.408 1.29h1.32l-.415-1.29c-.044-.132-.124-.44-.248-.93zm27.396 1.188c-.452 0-.808.396-.86.939h1.64c0-.55-.277-.939-.78-.939zM45.183 4.472c.28 0 .507.198.5.47 0 .285-.212.476-.516.476a.473.473 0 0 1-.484-.477c0-.271.219-.47.5-.47zM67.53 6.51c-.569 0-.933.536-.933 1.284 0 .733.372 1.268.925 1.268s.924-.572.924-1.284c.001-.725-.363-1.267-.917-1.267m-.03 3.138c-1.034 0-1.705-.777-1.705-1.833 0-1.1.685-1.884 1.765-1.884 1.019 0 1.705.74 1.705 1.826 0 1.114-.707 1.891-1.765 1.891M73.494 9.568h-.786V7.522c0-.63-.24-.946-.714-.946-.466 0-.788.404-.788.873v2.12h-.786V7.023c0-.315-.008-.653-.03-1.02h.693l.037.55h.021c.21-.38.642-.623 1.122-.623.743 0 1.23.572 1.23 1.503v2.134zM78.642 6.599h-.866v1.73c0 .44.153.66.458.66.14 0 .256-.014.35-.036l.022.601a1.743 1.743 0 0 1-.611.089c-.62 0-.99-.345-.99-1.247V6.599h-.517v-.594h.517v-.653l.771-.235v.887h.866V6.6zM82.809 9.568h-.788v-2.03c0-.638-.24-.961-.714-.961-.407 0-.786.279-.786.843v2.148h-.787V4.37h.787v2.14h.015c.248-.388.605-.58 1.064-.58.75 0 1.209.587 1.209 1.519v2.12zM86.108 7.413c0-.55-.276-.939-.78-.939-.452 0-.808.396-.86.939h1.64zm.722.564h-2.362c.015.675.458 1.056 1.114 1.056.351 0 .671-.06.955-.169l.123.55c-.335.147-.73.22-1.188.22-1.108 0-1.763-.704-1.763-1.796 0-1.093.67-1.914 1.675-1.914.903 0 1.472.675 1.472 1.694.003.14-.005.264-.026.36z"/>
    </g>
</svg>
