<svg xmlns="http://www.w3.org/2000/svg" xmlns:xlink="http://www.w3.org/1999/xlink" width="133" height="30" viewBox="0 0 133 30">
    <defs>
        <linearGradient id="a" x1="66.611%" x2="22.205%" y1="0%" y2="100%">
            <stop offset="0%" stop-color="#F3B229"/>
            <stop offset="69.077%" stop-color="#E7792C"/>
            <stop offset="100%" stop-color="#CA522D"/>
        </linearGradient>
        <linearGradient id="b" x1="0%" y1="40.927%" y2="53.695%">
            <stop offset="0%" stop-color="#F3B229"/>
            <stop offset="69.077%" stop-color="#E7792C"/>
            <stop offset="100%" stop-color="#CA522D"/>
        </linearGradient>
        <linearGradient id="c" x1="65.605%" x2="36.872%" y1="100%" y2="0%">
            <stop offset="0%" stop-color="#F3B229"/>
            <stop offset="69.077%" stop-color="#E7792C"/>
            <stop offset="100%" stop-color="#CA522D"/>
        </linearGradient>
        <path id="d" d="M.214.318h12.915v22.358H.214z"/>
    </defs>
    <g fill="none" fill-rule="evenodd">
        <path fill="url(#a)" d="M33.054 3.6v0m-.001.004v-.002.002m0 0l-.002.002-.003.004-.004.007a2.273 2.273 0 0 1-.455.526l-.001.001-.096.075-.004.005-.1.076-1.66 1.268-5.496 4.197-11.81 9.018 1.092 9.016.033.25.001.003c.04.235.115.457.221.66.002.005.004.007.004.01l.002.003.002.001c0 .002 0 .002.002.003v.003a.884.884 0 0 0 .037.065l.033.059h.002l.002.004.003.006.005.008a2.236 2.236 0 0 0 1.897 1.06c.79 0 1.483-.414 1.883-1.039l.002-.002.02-.033h.001l.075-.132L32.791 4.064l.073-.127.189-.333"/>
        <path fill="url(#b)" d="M31.001 0H2.753h-.384l.004.001h.007l.009.001c.227.01.456.054.676.136h.003l.111.048.12.05 1.916.824 6.335 2.724 13.612 5.855 7.16-5.467.195-.154c.001 0 .002 0 .003-.002.18-.153.332-.33.454-.525l.004-.007.004-.004v-.002l.002-.002v-.002c.014-.021.026-.042.038-.064.013-.02.022-.04.033-.06l.002-.002.001-.003.001-.001.002-.005.004-.008a2.3 2.3 0 0 0-.043-2.195A2.235 2.235 0 0 0 31.193.002h-.002L31.153 0H31"/>
        <path fill="url(#c)" d="M2.176 0h-.008s-.002 0-.003.002h-.009A2.239 2.239 0 0 0 .301 1.136 2.298 2.298 0 0 0 .247 3.31l.001.002.017.035c.011.022.062.11.077.132l14.05 24.664.073.126.192.337v-.002c0-.001 0-.002-.002-.003v-.001l-.003-.004-.003-.009a2.262 2.262 0 0 1-.222-.66v-.004l-.018-.12v-.006l-.016-.125-.254-2.093-.839-6.921-1.802-14.873-8.25-3.55L3.016.14 3.014.138a2.196 2.196 0 0 0-.679-.136h-.007L2.324 0h-.006L2.243 0h-.067m12.481 28.605c0 .001 0 .001 0 0"/>
        <path fill="#FFF" d="M46.496 8.04V26.67H42.36V8.04h-5.064V4.313H51.56V8.04zM62.049 7.667c-.845 0-1.688.155-2.2.341v7.11c.422.093 1.115.156 1.808.156 2.983 0 4.58-1.429 4.58-3.788 0-2.577-1.446-3.82-4.188-3.82m-.181 10.93c-.723 0-1.537-.062-2.02-.155v8.23H55.69V5.525c1.657-.746 3.827-1.212 6.298-1.212 5.425 0 8.408 2.826 8.408 7.204 0 4.068-2.893 7.079-8.528 7.079M84.026 16.905c-1.006-.54-1.864-.75-3.816-.75h-3.253v7.943c.828.3 2.277.54 3.52.54 3.55 0 5.53-1.47 5.53-4.166 0-1.619-.68-2.848-1.98-3.567m-3.64-10.55c-1.33 0-2.66.24-3.43.54v7.343h3.135c2.04 0 2.899-.21 3.845-.9.858-.629 1.42-1.828 1.42-3.176 0-2.368-1.774-3.807-4.97-3.807m.09 20.32c-2.13 0-4.615-.509-5.945-1.139V5.456c1.42-.66 3.608-1.139 5.856-1.139 4.88 0 7.424 2.308 7.424 5.665 0 2.817-1.952 4.585-3.638 5.005v.06c1.804.45 4.377 2.068 4.377 5.545 0 3.776-2.928 6.084-8.074 6.084M100.707 17.894c-3.55.21-7.394.42-7.394 3.776 0 1.889 1.39 3.117 4.17 3.117 1.212 0 2.661-.24 3.224-.509v-6.384zm-3.165 8.782c-4.377 0-6.566-1.889-6.566-4.946 0-4.614 4.91-5.304 9.73-5.574v-1.229c0-2.397-1.567-3.147-3.786-3.147-1.478 0-3.311.48-4.347.989L91.923 11c1.212-.57 3.224-1.139 5.205-1.139 3.579 0 5.915 1.438 5.915 5.275v10.4c-1.123.629-3.401 1.139-5.501 1.139zM115.229 26.676V15.583c0-2.195-1.301-3.596-3.874-3.596-1.391 0-2.632.274-3.402.579v14.11h-2.484V11.073c1.538-.671 3.52-1.158 5.856-1.158 4.2 0 6.359 2.011 6.359 5.454v11.307h-2.455z"/>
        <g transform="translate(119.895 4)">
            <mask id="e" fill="#fff">
                <use xlink:href="#d"/>
            </mask>
            <path fill="#FFF" d="M10.2 22.676L2.7 14.374h-.06v8.302H.214V.318h2.425v13.606h.06l7.472-8.007h2.958l-7.74 8.247 7.74 8.512z" mask="url(#e)"/>
        </g>
    </g>
</svg>
