<svg width="24" height="24" viewBox="0 0 24 24" fill="none" xmlns="http://www.w3.org/2000/svg">
<path fill-rule="evenodd" clip-rule="evenodd" d="M12.6875 1H11.3125V4.4375H12.6875V1ZM3.73556 4.708L4.70782 3.73573L7.13799 6.1659L6.16573 7.13817L3.73556 4.708ZM6.25869 13.0484C6.3845 13.2513 6.60519 13.375 6.84375 13.375H17.1562C17.3948 13.375 17.6155 13.2513 17.7413 13.0484C17.8671 12.8456 17.8781 12.5926 17.7716 12.3795L15.0216 6.8795C14.9047 6.64713 14.6668 6.5 14.4062 6.5H9.59375C9.33319 6.5 9.09531 6.64713 8.97844 6.88019L6.22844 12.3802C6.12256 12.5926 6.13356 12.8456 6.25869 13.0484ZM19.4903 15.1302C19.3734 14.8971 19.1356 14.75 18.875 14.75H14.0625C13.7758 14.75 13.5194 14.9281 13.4183 15.1955L12 18.9788L10.5817 15.1955C10.4806 14.9281 10.2242 14.75 9.9375 14.75H5.125C4.86444 14.75 4.62656 14.8971 4.50969 15.1302L1.75969 20.6302C1.65312 20.8433 1.66481 21.0963 1.78994 21.2991C1.91506 21.5019 2.13644 21.625 2.375 21.625H12H21.625C21.8636 21.625 22.0842 21.5012 22.2101 21.2984C22.3359 21.0956 22.3469 20.8426 22.2403 20.6295L19.4903 15.1302ZM4.4375 11.3125H1V12.6875H4.4375V11.3125ZM16.8612 6.16635L19.2914 3.73618L20.2636 4.70845L17.8335 7.13862L16.8612 6.16635ZM23 11.3125H19.5625V12.6875H23V11.3125Z" fill="#FFB340"/>
</svg>
