<svg width="24" height="24" viewBox="0 0 24 24" fill="none" xmlns="http://www.w3.org/2000/svg">
<path fill-rule="evenodd" clip-rule="evenodd" d="M15.3333 4.08333C15.3333 5.23393 14.4006 6.16667 13.25 6.16667C12.0994 6.16667 11.1667 5.23393 11.1667 4.08333C11.1667 2.93274 12.0994 2 13.25 2C14.4006 2 15.3333 2.93274 15.3333 4.08333ZM15.75 7.83333H9.18083C8.28833 6.31167 6.7825 6.07583 6.04833 6.175L5.09833 6.31083L5.955 9.25167C5.3125 9.77917 4.7825 10.4275 4.39333 11.1667H2V17H4.38833C5.39917 18.9192 7.32917 20.1608 9.5 20.305V22H11.1667V20.3333H14.5V22H16.1667V20.3125C19.4183 20.0967 22 17.3892 22 14.0833C22 10.6367 19.1967 7.83333 15.75 7.83333ZM16.1667 11.1667V12.8333H10.3333V11.1667H16.1667Z" fill="#FEB2A8"/>
</svg>
